0, 0, Header, 1, 2, 102
1, 0, Start_track
1, 0, Time_signature, 4, 2, 24, 8
1, 0, End_track
2, 0, Start_track
2, 0, MIDI_port, 0
2, 0, Program_c, 0, 48
2, 0, Note_on_c, 0, 62, 100
2, 94, Note_on_c, 0, 62, 0
2, 192, Note_on_c, 0, 65, 100
2, 286, Note_on_c, 0, 65, 0
2, 288, Note_on_c, 0, 65, 100
2, 382, Note_on_c, 0, 65, 0
2, 384, Note_on_c, 0, 67, 100
2, 478, Note_on_c, 0, 67, 0
2, 480, Note_on_c, 0, 63, 100
2, 574, Note_on_c, 0, 63, 0
2, 576, Note_on_c, 0, 67, 100
2, 670, Note_on_c, 0, 67, 0
2, 672, Note_on_c, 0, 70, 100
2, 766, Note_on_c, 0, 70, 0
2, 864, Note_on_c, 0, 69, 100
2, 958, Note_on_c, 0, 69, 0
2, 1008, Note_on_c, 0, 63, 100
2, 1102, Note_on_c, 0, 63, 0
2, 1152, Note_on_c, 0, 65, 100
2, 1200, Note_on_c, 0, 63, 100
2, 1246, Note_on_c, 0, 65, 0
2, 1294, Note_on_c, 0, 63, 0
2, 1344, Note_on_c, 0, 63, 100
2, 1438, Note_on_c, 0, 63, 0
2, 1440, Note_on_c, 0, 63, 100
2, 1534, Note_on_c, 0, 63, 0
2, 1536, Note_on_c, 0, 63, 100
2, 1630, Note_on_c, 0, 63, 0
2, 1632, Note_on_c, 0, 63, 100
2, 1726, Note_on_c, 0, 63, 0
2, 1728, Note_on_c, 0, 70, 100
2, 1824, Note_on_c, 0, 70, 0
2, 1824, Note_on_c, 0, 69, 100
2, 1918, Note_on_c, 0, 69, 0
2, 1920, Note_on_c, 0, 69, 100
2, 2014, Note_on_c, 0, 69, 0
2, 2016, Note_on_c, 0, 72, 100
2, 2110, Note_on_c, 0, 72, 0
2, 2160, Note_on_c, 0, 70, 100
2, 2254, Note_on_c, 0, 70, 0
2, 2256, Note_on_c, 0, 69, 100
2, 2350, Note_on_c, 0, 69, 0
2, 2352, Note_on_c, 0, 67, 100
2, 2446, Note_on_c, 0, 67, 0
2, 2448, Note_on_c, 0, 67, 100
2, 2542, Note_on_c, 0, 67, 0
2, 2592, Note_on_c, 0, 63, 100
2, 2686, Note_on_c, 0, 63, 0
2, 2688, Note_on_c, 0, 63, 100
2, 2782, Note_on_c, 0, 63, 0
2, 2784, Note_on_c, 0, 63, 100
2, 2878, Note_on_c, 0, 63, 0
2, 2880, Note_on_c, 0, 62, 100
2, 2974, Note_on_c, 0, 62, 0
2, 2976, Note_on_c, 0, 63, 100
2, 3064, Note_on_c, 0, 60, 100
2, 3070, Note_on_c, 0, 63, 0
2, 3160, Note_on_c, 0, 60, 0
2, 3168, Note_on_c, 0, 60, 100
2, 3264, Note_on_c, 0, 60, 0
2, 3264, Note_on_c, 0, 63, 100
2, 3360, Note_on_c, 0, 63, 0
2, 3360, Note_on_c, 0, 60, 100
2, 3456, Note_on_c, 0, 60, 0
2, 3456, Note_on_c, 0, 65, 100
2, 3552, Note_on_c, 0, 65, 0
2, 3648, Note_on_c, 0, 63, 100
2, 3744, Note_on_c, 0, 63, 0
2, 3744, Note_on_c, 0, 67, 100
2, 3840, Note_on_c, 0, 67, 0
2, 3840, Note_on_c, 0, 63, 100
2, 3936, Note_on_c, 0, 63, 0
2, 3936, Note_on_c, 0, 63, 100
2, 4032, Note_on_c, 0, 63, 0
2, 4032, Note_on_c, 0, 69, 100
2, 4128, Note_on_c, 0, 69, 0
2, 4128, Note_on_c, 0, 73, 100
2, 4224, Note_on_c, 0, 73, 0
2, 4224, Note_on_c, 0, 72, 100
2, 4320, Note_on_c, 0, 72, 0
2, 4320, Note_on_c, 0, 72, 100
2, 4368, Note_on_c, 0, 72, 100
2, 4416, Note_on_c, 0, 72, 0
2, 4464, Note_on_c, 0, 72, 0
2, 4464, Note_on_c, 0, 72, 100
2, 4560, Note_on_c, 0, 72, 0
2, 4560, Note_on_c, 0, 72, 100
2, 4656, Note_on_c, 0, 72, 0
2, 4656, Note_on_c, 0, 72, 100
2, 4752, Note_on_c, 0, 72, 0
2, 4752, Note_on_c, 0, 72, 100
2, 4848, Note_on_c, 0, 72, 0
2, 4912, Note_on_c, 0, 72, 100
2, 5008, Note_on_c, 0, 72, 0
2, 5040, Note_on_c, 0, 73, 100
2, 5136, Note_on_c, 0, 73, 0
2, 5136, Note_on_c, 0, 74, 100
2, 5232, Note_on_c, 0, 74, 0
2, 5232, Note_on_c, 0, 72, 100
2, 5328, Note_on_c, 0, 72, 0
2, 5328, Note_on_c, 0, 74, 100
2, 5424, Note_on_c, 0, 74, 0
2, 5616, Note_on_c, 0, 75, 100
2, 5712, Note_on_c, 0, 75, 0
2, 6064, Note_on_c, 0, 72, 100
2, 6112, Note_on_c, 0, 72, 100
2, 6160, Note_on_c, 0, 72, 0
2, 6208, Note_on_c, 0, 72, 0
2, 6208, Note_on_c, 0, 69, 100
2, 6304, Note_on_c, 0, 69, 0
2, 6352, Note_on_c, 0, 72, 100
2, 6448, Note_on_c, 0, 72, 0
2, 6448, Note_on_c, 0, 72, 100
2, 6544, Note_on_c, 0, 72, 0
2, 6544, Note_on_c, 0, 72, 100
2, 6640, Note_on_c, 0, 72, 0
2, 6640, Note_on_c, 0, 72, 100
2, 6736, Note_on_c, 0, 72, 0
2, 6736, Note_on_c, 0, 73, 100
2, 6832, Note_on_c, 0, 73, 0
2, 6832, Note_on_c, 0, 77, 100
2, 6928, Note_on_c, 0, 77, 0
2, 6928, Note_on_c, 0, 76, 100
2, 7024, Note_on_c, 0, 76, 0
2, 7024, Note_on_c, 0, 74, 100
2, 7120, Note_on_c, 0, 74, 0
2, 7120, Note_on_c, 0, 77, 100
2, 7216, Note_on_c, 0, 77, 0
2, 7216, Note_on_c, 0, 74, 100
2, 7312, Note_on_c, 0, 74, 0
2, 7312, Note_on_c, 0, 77, 100
2, 7408, Note_on_c, 0, 77, 0
2, 7408, Note_on_c, 0, 74, 100
2, 7504, Note_on_c, 0, 74, 0
2, 7504, Note_on_c, 0, 72, 100
2, 7600, Note_on_c, 0, 72, 0
2, 7632, Note_on_c, 0, 72, 100
2, 7728, Note_on_c, 0, 72, 0
2, 7728, Note_on_c, 0, 73, 100
2, 7824, Note_on_c, 0, 73, 0
2, 7824, Note_on_c, 0, 72, 100
2, 7920, Note_on_c, 0, 72, 0
2, 7920, Note_on_c, 0, 72, 100
2, 8016, Note_on_c, 0, 72, 0
2, 8016, Note_on_c, 0, 72, 100
2, 8112, Note_on_c, 0, 72, 0
2, 8112, Note_on_c, 0, 69, 100
2, 8208, Note_on_c, 0, 69, 0
2, 8208, Note_on_c, 0, 69, 100
2, 8304, Note_on_c, 0, 69, 0
2, 8304, Note_on_c, 0, 69, 100
2, 8400, Note_on_c, 0, 69, 0
2, 8448, Note_on_c, 0, 72, 100
2, 8544, Note_on_c, 0, 72, 0
2, 8544, Note_on_c, 0, 72, 100
2, 8640, Note_on_c, 0, 72, 0
2, 8640, Note_on_c, 0, 72, 100
2, 8736, Note_on_c, 0, 72, 0
2, 8736, Note_on_c, 0, 72, 100
2, 8832, Note_on_c, 0, 72, 0
2, 8832, Note_on_c, 0, 72, 100
2, 8928, Note_on_c, 0, 72, 0
2, 8976, Note_on_c, 0, 69, 100
2, 9024, Note_on_c, 0, 72, 100
2, 9072, Note_on_c, 0, 69, 0
2, 9120, Note_on_c, 0, 72, 0
2, 9120, Note_on_c, 0, 72, 100
2, 9216, Note_on_c, 0, 72, 0
2, 9216, Note_on_c, 0, 72, 100
2, 9312, Note_on_c, 0, 72, 0
2, 9312, Note_on_c, 0, 72, 100
2, 9408, Note_on_c, 0, 72, 0
2, 9408, Note_on_c, 0, 72, 100
2, 9504, Note_on_c, 0, 72, 0
2, 9552, Note_on_c, 0, 72, 100
2, 9648, Note_on_c, 0, 72, 0
2, 9648, Note_on_c, 0, 72, 100
2, 9744, Note_on_c, 0, 72, 0
2, 9744, Note_on_c, 0, 69, 100
2, 9840, Note_on_c, 0, 69, 0
2, 9840, Note_on_c, 0, 74, 100
2, 9936, Note_on_c, 0, 74, 0
2, 9936, Note_on_c, 0, 69, 100
2, 10032, Note_on_c, 0, 69, 0
2, 10032, Note_on_c, 0, 71, 100
2, 10128, Note_on_c, 0, 71, 0
2, 10128, Note_on_c, 0, 72, 100
2, 10224, Note_on_c, 0, 72, 0
2, 10224, Note_on_c, 0, 72, 100
2, 10320, Note_on_c, 0, 72, 0
2, 10320, Note_on_c, 0, 74, 100
2, 10416, Note_on_c, 0, 74, 0
2, 10464, Note_on_c, 0, 72, 100
2, 10560, Note_on_c, 0, 72, 0
2, 10560, Note_on_c, 0, 72, 100
2, 10656, Note_on_c, 0, 72, 0
2, 10656, Note_on_c, 0, 72, 100
2, 10752, Note_on_c, 0, 72, 0
2, 10752, Note_on_c, 0, 69, 100
2, 10848, Note_on_c, 0, 69, 0
2, 10848, Note_on_c, 0, 69, 100
2, 10944, Note_on_c, 0, 69, 0
2, 10944, Note_on_c, 0, 72, 100
2, 11040, Note_on_c, 0, 72, 0
2, 11040, Note_on_c, 0, 72, 100
2, 11136, Note_on_c, 0, 72, 0
2, 11136, Note_on_c, 0, 72, 100
2, 11232, Note_on_c, 0, 72, 0
2, 11232, Note_on_c, 0, 72, 100
2, 11328, Note_on_c, 0, 72, 0
2, 11328, Note_on_c, 0, 69, 100
2, 11424, Note_on_c, 0, 69, 0
2, 11424, Note_on_c, 0, 72, 100
2, 11520, Note_on_c, 0, 72, 0
2, 11520, Note_on_c, 0, 74, 100
2, 11616, Note_on_c, 0, 74, 0
2, 11616, Note_on_c, 0, 72, 100
2, 11712, Note_on_c, 0, 72, 0
2, 11760, Note_on_c, 0, 74, 100
2, 11856, Note_on_c, 0, 74, 0
2, 11856, Note_on_c, 0, 72, 100
2, 11952, Note_on_c, 0, 72, 0
2, 12000, Note_on_c, 0, 74, 100
2, 12096, Note_on_c, 0, 74, 0
2, 12144, Note_on_c, 0, 72, 100
2, 12240, Note_on_c, 0, 72, 0
2, 12384, Note_on_c, 0, 74, 100
2, 12480, Note_on_c, 0, 74, 0
2, 12480, Note_on_c, 0, 74, 100
2, 12576, Note_on_c, 0, 74, 0
2, 12768, Note_on_c, 0, 74, 100
2, 12864, Note_on_c, 0, 74, 0
2, 12864, Note_on_c, 0, 72, 100
2, 12960, Note_on_c, 0, 72, 0
2, 13056, Note_on_c, 0, 74, 100
2, 13152, Note_on_c, 0, 74, 0
2, 13152, Note_on_c, 0, 72, 100
2, 13248, Note_on_c, 0, 72, 0
2, 13248, Note_on_c, 0, 72, 100
2, 13344, Note_on_c, 0, 72, 0
2, 13344, Note_on_c, 0, 72, 100
2, 13440, Note_on_c, 0, 72, 0
2, 13440, Note_on_c, 0, 72, 100
2, 13536, Note_on_c, 0, 72, 0
2, 13536, Note_on_c, 0, 67, 100
2, 13632, Note_on_c, 0, 67, 0
2, 13632, Note_on_c, 0, 72, 100
2, 13728, Note_on_c, 0, 72, 0
2, 13728, Note_on_c, 0, 67, 100
2, 13824, Note_on_c, 0, 67, 0
2, 13824, Note_on_c, 0, 69, 100
2, 13920, Note_on_c, 0, 69, 0
2, 13920, Note_on_c, 0, 72, 100
2, 14016, Note_on_c, 0, 72, 0
2, 14016, Note_on_c, 0, 72, 100
2, 14112, Note_on_c, 0, 72, 0
2, 14112, Note_on_c, 0, 72, 100
2, 14208, Note_on_c, 0, 72, 0
2, 14208, Note_on_c, 0, 72, 100
2, 14304, Note_on_c, 0, 72, 0
2, 14352, Note_on_c, 0, 69, 100
2, 14448, Note_on_c, 0, 69, 0
2, 14448, Note_on_c, 0, 72, 100
2, 14544, Note_on_c, 0, 72, 0
2, 14544, Note_on_c, 0, 72, 100
2, 14640, Note_on_c, 0, 72, 0
2, 14640, Note_on_c, 0, 72, 100
2, 14736, Note_on_c, 0, 72, 0
2, 14736, Note_on_c, 0, 72, 100
2, 14832, Note_on_c, 0, 72, 0
2, 14832, Note_on_c, 0, 72, 100
2, 14928, Note_on_c, 0, 72, 0
2, 14976, Note_on_c, 0, 72, 100
2, 15072, Note_on_c, 0, 72, 0
2, 15072, Note_on_c, 0, 72, 100
2, 15168, Note_on_c, 0, 72, 0
2, 15168, Note_on_c, 0, 69, 100
2, 15264, Note_on_c, 0, 69, 0
2, 15264, Note_on_c, 0, 72, 100
2, 15360, Note_on_c, 0, 72, 0
2, 15360, Note_on_c, 0, 72, 100
2, 15456, Note_on_c, 0, 72, 0
2, 15456, Note_on_c, 0, 72, 100
2, 15552, Note_on_c, 0, 72, 0
2, 15600, Note_on_c, 0, 74, 100
2, 15696, Note_on_c, 0, 74, 0
2, 15696, Note_on_c, 0, 72, 100
2, 15744, Note_on_c, 0, 74, 100
2, 15792, Note_on_c, 0, 72, 0
2, 15840, Note_on_c, 0, 74, 0
2, 15840, Note_on_c, 0, 72, 100
2, 15936, Note_on_c, 0, 72, 0
2, 15936, Note_on_c, 0, 72, 100
2, 16032, Note_on_c, 0, 72, 0
2, 16032, Note_on_c, 0, 71, 100
2, 16128, Note_on_c, 0, 71, 0
2, 16128, Note_on_c, 0, 74, 100
2, 16224, Note_on_c, 0, 74, 0
2, 16224, Note_on_c, 0, 74, 100
2, 16320, Note_on_c, 0, 74, 0
2, 16320, Note_on_c, 0, 74, 100
2, 16416, Note_on_c, 0, 74, 0
2, 16464, Note_on_c, 0, 77, 100
2, 16464, Note_on_c, 0, 79, 100
2, 16560, Note_on_c, 0, 77, 0
2, 16560, Note_on_c, 0, 79, 0
2, 16560, Note_on_c, 0, 74, 100
2, 16656, Note_on_c, 0, 74, 0
2, 16656, Note_on_c, 0, 74, 100
2, 16752, Note_on_c, 0, 74, 0
2, 16752, Note_on_c, 0, 76, 100
2, 16848, Note_on_c, 0, 76, 0
2, 16848, Note_on_c, 0, 77, 100
2, 16944, Note_on_c, 0, 77, 0
2, 16944, Note_on_c, 0, 74, 100
2, 17040, Note_on_c, 0, 74, 0
2, 17040, Note_on_c, 0, 79, 100
2, 17136, Note_on_c, 0, 79, 0
2, 17136, Note_on_c, 0, 74, 100
2, 17232, Note_on_c, 0, 74, 0
2, 17232, Note_on_c, 0, 72, 100
2, 17328, Note_on_c, 0, 72, 0
2, 17360, Note_on_c, 0, 72, 100
2, 17456, Note_on_c, 0, 72, 0
2, 17456, Note_on_c, 0, 74, 100
2, 17552, Note_on_c, 0, 74, 0
2, 17600, Note_on_c, 0, 77, 100
2, 17696, Note_on_c, 0, 77, 0
2, 17744, Note_on_c, 0, 72, 100
2, 17840, Note_on_c, 0, 72, 0
2, 17840, Note_on_c, 0, 71, 100
2, 17936, Note_on_c, 0, 71, 0
2, 17936, Note_on_c, 0, 72, 100
2, 18032, Note_on_c, 0, 72, 0
2, 18032, Note_on_c, 0, 72, 100
2, 18128, Note_on_c, 0, 72, 0
2, 18128, Note_on_c, 0, 72, 100
2, 18224, Note_on_c, 0, 72, 0
2, 18224, Note_on_c, 0, 71, 100
2, 18320, Note_on_c, 0, 71, 0
2, 18320, Note_on_c, 0, 72, 100
2, 18416, Note_on_c, 0, 72, 0
2, 18512, Note_on_c, 0, 72, 100
2, 18608, Note_on_c, 0, 72, 0
2, 18608, Note_on_c, 0, 71, 100
2, 18704, Note_on_c, 0, 71, 0
2, 18704, Note_on_c, 0, 72, 100
2, 18800, Note_on_c, 0, 72, 0
2, 18800, Note_on_c, 0, 72, 100
2, 18896, Note_on_c, 0, 72, 0
2, 18944, Note_on_c, 0, 72, 100
2, 19040, Note_on_c, 0, 72, 0
2, 19040, Note_on_c, 0, 71, 100
2, 19136, Note_on_c, 0, 71, 0
2, 19136, Note_on_c, 0, 69, 100
2, 19232, Note_on_c, 0, 69, 0
2, 19232, Note_on_c, 0, 72, 100
2, 19328, Note_on_c, 0, 72, 0
2, 19328, Note_on_c, 0, 72, 100
2, 19424, Note_on_c, 0, 72, 0
2, 19424, Note_on_c, 0, 72, 100
2, 19520, Note_on_c, 0, 72, 0
2, 19520, Note_on_c, 0, 74, 100
2, 19616, Note_on_c, 0, 74, 0
2, 19664, Note_on_c, 0, 72, 100
2, 19760, Note_on_c, 0, 72, 0
2, 19760, Note_on_c, 0, 72, 100
2, 19856, Note_on_c, 0, 72, 0
2, 19856, Note_on_c, 0, 72, 100
2, 19952, Note_on_c, 0, 72, 0
2, 20064, Note_on_c, 0, 72, 100
2, 20160, Note_on_c, 0, 72, 0
2, 20160, Note_on_c, 0, 72, 100
2, 20256, Note_on_c, 0, 72, 0
2, 20256, Note_on_c, 0, 72, 100
2, 20352, Note_on_c, 0, 72, 0
2, 20352, Note_on_c, 0, 72, 100
2, 20448, Note_on_c, 0, 72, 0
2, 20448, Note_on_c, 0, 72, 100
2, 20544, Note_on_c, 0, 72, 0
2, 20544, Note_on_c, 0, 72, 100
2, 20640, Note_on_c, 0, 72, 0
2, 20640, Note_on_c, 0, 74, 100
2, 20736, Note_on_c, 0, 74, 0
2, 20736, Note_on_c, 0, 72, 100
2, 20800, Note_on_c, 0, 74, 100
2, 20832, Note_on_c, 0, 72, 0
2, 20896, Note_on_c, 0, 74, 0
2, 20896, Note_on_c, 0, 74, 100
2, 20992, Note_on_c, 0, 74, 0
2, 20992, Note_on_c, 0, 72, 100
2, 21040, Note_on_c, 0, 74, 100
2, 21088, Note_on_c, 0, 72, 0
2, 21136, Note_on_c, 0, 74, 0
2, 21136, Note_on_c, 0, 74, 100
2, 21232, Note_on_c, 0, 74, 0
2, 21232, Note_on_c, 0, 72, 100
2, 21328, Note_on_c, 0, 72, 0
2, 21328, Note_on_c, 0, 74, 100
2, 21424, Note_on_c, 0, 74, 0
2, 21424, Note_on_c, 0, 72, 100
2, 21520, Note_on_c, 0, 72, 0
2, 21520, Note_on_c, 0, 74, 100
2, 21616, Note_on_c, 0, 74, 0
2, 21632, Note_on_c, 0, 76, 100
2, 21728, Note_on_c, 0, 76, 0
2, 21776, Note_on_c, 0, 72, 100
2, 21824, Note_on_c, 0, 76, 100
2, 21872, Note_on_c, 0, 72, 0
2, 21920, Note_on_c, 0, 76, 0
2, 21968, Note_on_c, 0, 72, 100
2, 22064, Note_on_c, 0, 72, 0
2, 22064, Note_on_c, 0, 72, 100
2, 22160, Note_on_c, 0, 72, 0
2, 22160, Note_on_c, 0, 69, 100
2, 22256, Note_on_c, 0, 69, 0
2, 22256, Note_on_c, 0, 72, 100
2, 22352, Note_on_c, 0, 72, 0
2, 22352, Note_on_c, 0, 72, 100
2, 22400, Note_on_c, 0, 77, 100
2, 22448, Note_on_c, 0, 72, 0
2, 22496, Note_on_c, 0, 77, 0
2, 22496, Note_on_c, 0, 74, 100
2, 22592, Note_on_c, 0, 74, 0
2, 22592, Note_on_c, 0, 72, 100
2, 22640, Note_on_c, 0, 72, 100
2, 22688, Note_on_c, 0, 72, 0
2, 22736, Note_on_c, 0, 72, 0
2, 22736, Note_on_c, 0, 69, 100
2, 22832, Note_on_c, 0, 69, 0
2, 22832, Note_on_c, 0, 69, 100
2, 22928, Note_on_c, 0, 69, 0
2, 22928, Note_on_c, 0, 67, 100
2, 23024, Note_on_c, 0, 67, 0
2, 23024, Note_on_c, 0, 67, 100
2, 23088, Note_on_c, 0, 67, 100
2, 23120, Note_on_c, 0, 67, 0
2, 23152, Note_on_c, 0, 74, 100
2, 23184, Note_on_c, 0, 67, 0
2, 23248, Note_on_c, 0, 74, 0
2, 23248, Note_on_c, 0, 72, 100
2, 23344, Note_on_c, 0, 72, 0
2, 23344, Note_on_c, 0, 72, 100
2, 23440, Note_on_c, 0, 72, 0
2, 23440, Note_on_c, 0, 76, 100
2, 23536, Note_on_c, 0, 76, 0
2, 23536, Note_on_c, 0, 74, 100
2, 23632, Note_on_c, 0, 74, 0
2, 23632, Note_on_c, 0, 72, 100
2, 23728, Note_on_c, 0, 72, 0
2, 23728, Note_on_c, 0, 74, 100
2, 23824, Note_on_c, 0, 74, 0
2, 23824, Note_on_c, 0, 72, 100
2, 23920, Note_on_c, 0, 72, 0
2, 23968, Note_on_c, 0, 72, 100
2, 24064, Note_on_c, 0, 72, 0
2, 24064, Note_on_c, 0, 72, 100
2, 24160, Note_on_c, 0, 72, 0
2, 24160, Note_on_c, 0, 74, 100
2, 24256, Note_on_c, 0, 74, 0
2, 24256, Note_on_c, 0, 74, 100
2, 24352, Note_on_c, 0, 74, 0
2, 24352, Note_on_c, 0, 72, 100
2, 24448, Note_on_c, 0, 72, 0
2, 24448, Note_on_c, 0, 74, 100
2, 24544, Note_on_c, 0, 74, 0
2, 24544, Note_on_c, 0, 72, 100
2, 24640, Note_on_c, 0, 72, 0
2, 24640, Note_on_c, 0, 72, 100
2, 24720, Note_on_c, 0, 72, 100
2, 24736, Note_on_c, 0, 72, 0
2, 24816, Note_on_c, 0, 72, 0
2, 24816, Note_on_c, 0, 74, 100
2, 24864, Note_on_c, 0, 72, 100
2, 24912, Note_on_c, 0, 74, 0
2, 24960, Note_on_c, 0, 72, 0
2, 25056, Note_on_c, 0, 72, 100
2, 25152, Note_on_c, 0, 72, 0
2, 25152, Note_on_c, 0, 72, 100
2, 25248, Note_on_c, 0, 72, 0
2, 25248, Note_on_c, 0, 72, 100
2, 25344, Note_on_c, 0, 72, 0
2, 25344, Note_on_c, 0, 74, 100
2, 25440, Note_on_c, 0, 74, 0
2, 25440, Note_on_c, 0, 74, 100
2, 25536, Note_on_c, 0, 74, 0
2, 25536, Note_on_c, 0, 77, 100
2, 25632, Note_on_c, 0, 77, 0
2, 25632, Note_on_c, 0, 76, 100
2, 25728, Note_on_c, 0, 76, 0
2, 25728, Note_on_c, 0, 74, 100
2, 25824, Note_on_c, 0, 74, 0
2, 25824, Note_on_c, 0, 72, 100
2, 25920, Note_on_c, 0, 72, 0
2, 25920, Note_on_c, 0, 72, 100
2, 26016, Note_on_c, 0, 72, 0
2, 26016, Note_on_c, 0, 69, 100
2, 26112, Note_on_c, 0, 69, 0
2, 26112, Note_on_c, 0, 72, 100
2, 26208, Note_on_c, 0, 72, 0
2, 26208, Note_on_c, 0, 71, 100
2, 26256, Note_on_c, 0, 74, 100
2, 26304, Note_on_c, 0, 71, 0
2, 26304, Note_on_c, 0, 74, 100
2, 26352, Note_on_c, 0, 74, 0
2, 26400, Note_on_c, 0, 74, 0
2, 26400, Note_on_c, 0, 76, 100
2, 26496, Note_on_c, 0, 76, 0
2, 26496, Note_on_c, 0, 74, 100
2, 26592, Note_on_c, 0, 74, 0
2, 26592, Note_on_c, 0, 74, 100
2, 26688, Note_on_c, 0, 74, 0
2, 26688, Note_on_c, 0, 72, 100
2, 26784, Note_on_c, 0, 72, 0
2, 26784, Note_on_c, 0, 72, 100
2, 26832, Note_on_c, 0, 71, 100
2, 26880, Note_on_c, 0, 72, 0
2, 26880, Note_on_c, 0, 76, 100
2, 26928, Note_on_c, 0, 71, 0
2, 26976, Note_on_c, 0, 76, 0
2, 26976, Note_on_c, 0, 74, 100
2, 27072, Note_on_c, 0, 74, 0
2, 27072, Note_on_c, 0, 69, 100
2, 27168, Note_on_c, 0, 69, 0
2, 27168, Note_on_c, 0, 72, 100
2, 27264, Note_on_c, 0, 72, 0
2, 27312, Note_on_c, 0, 72, 100
2, 27408, Note_on_c, 0, 72, 0
2, 27408, Note_on_c, 0, 67, 100
2, 27456, Note_on_c, 0, 67, 100
2, 27504, Note_on_c, 0, 67, 0
2, 27552, Note_on_c, 0, 67, 0
2, 27552, Note_on_c, 0, 71, 100
2, 27648, Note_on_c, 0, 71, 0
2, 27648, Note_on_c, 0, 72, 100
2, 27744, Note_on_c, 0, 72, 0
2, 27744, Note_on_c, 0, 76, 100
2, 27840, Note_on_c, 0, 76, 0
2, 27840, Note_on_c, 0, 76, 100
2, 27936, Note_on_c, 0, 76, 0
2, 27936, Note_on_c, 0, 74, 100
2, 28032, Note_on_c, 0, 74, 0
2, 28032, Note_on_c, 0, 69, 100
2, 28128, Note_on_c, 0, 69, 0
2, 28144, Note_on_c, 0, 72, 100
2, 28240, Note_on_c, 0, 72, 0
2, 28240, Note_on_c, 0, 69, 100
2, 28336, Note_on_c, 0, 69, 0
2, 28336, Note_on_c, 0, 72, 100
2, 28432, Note_on_c, 0, 72, 0
2, 28432, Note_on_c, 0, 71, 100
2, 28528, Note_on_c, 0, 71, 0
2, 28528, Note_on_c, 0, 72, 100
2, 28624, Note_on_c, 0, 72, 0
2, 28624, Note_on_c, 0, 72, 100
2, 28720, Note_on_c, 0, 72, 0
2, 28720, Note_on_c, 0, 69, 100
2, 28816, Note_on_c, 0, 69, 0
2, 28816, Note_on_c, 0, 72, 100
2, 28912, Note_on_c, 0, 72, 0
2, 28912, Note_on_c, 0, 69, 100
2, 29008, Note_on_c, 0, 69, 0
2, 29008, Note_on_c, 0, 72, 100
2, 29104, Note_on_c, 0, 72, 0
2, 61104, Note_on_c, 0, 72, 100
2, 61200, Note_on_c, 0, 72, 0
2, 61200, Note_on_c, 0, 74, 100
2, 61280, Note_on_c, 0, 74, 100
2, 61296, Note_on_c, 0, 74, 0
2, 61376, Note_on_c, 0, 74, 0
2, 61376, Note_on_c, 0, 74, 100
2, 61472, Note_on_c, 0, 74, 0
2, 61472, Note_on_c, 0, 74, 100
2, 61568, Note_on_c, 0, 74, 0
2, 61824, Note_on_c, 0, 72, 100
2, 61920, Note_on_c, 0, 72, 0
2, 61920, Note_on_c, 0, 76, 100
2, 62016, Note_on_c, 0, 76, 0
2, 62016, Note_on_c, 0, 76, 100
2, 62112, Note_on_c, 0, 76, 0
2, 62112, Note_on_c, 0, 74, 100
2, 62208, Note_on_c, 0, 74, 0
2, 62208, Note_on_c, 0, 76, 100
2, 62304, Note_on_c, 0, 76, 0
2, 62304, Note_on_c, 0, 74, 100
2, 62400, Note_on_c, 0, 74, 0
2, 62448, Note_on_c, 0, 74, 100
2, 62544, Note_on_c, 0, 74, 0
2, 62592, Note_on_c, 0, 77, 100
2, 62688, Note_on_c, 0, 77, 0
2, 62688, Note_on_c, 0, 79, 100
2, 62752, Note_on_c, 0, 74, 100
2, 62784, Note_on_c, 0, 79, 0
2, 62848, Note_on_c, 0, 74, 0
2, 62848, Note_on_c, 0, 74, 100
2, 62944, Note_on_c, 0, 74, 0
2, 62944, Note_on_c, 0, 79, 100
2, 63040, Note_on_c, 0, 79, 0
2, 63040, Note_on_c, 0, 77, 100
2, 63136, Note_on_c, 0, 77, 0
2, 63136, Note_on_c, 0, 76, 100
2, 63232, Note_on_c, 0, 76, 0
2, 63232, Note_on_c, 0, 77, 100
2, 63328, Note_on_c, 0, 77, 0
2, 63328, Note_on_c, 0, 76, 100
2, 63424, Note_on_c, 0, 76, 0
2, 63424, Note_on_c, 0, 74, 100
2, 63520, Note_on_c, 0, 74, 0
2, 63520, Note_on_c, 0, 77, 100
2, 63616, Note_on_c, 0, 77, 0
2, 63648, Note_on_c, 0, 76, 100
2, 63744, Note_on_c, 0, 76, 0
2, 63744, Note_on_c, 0, 76, 100
2, 63840, Note_on_c, 0, 76, 0
2, 63840, Note_on_c, 0, 72, 100
2, 63936, Note_on_c, 0, 72, 0
2, 63936, Note_on_c, 0, 69, 100
2, 64032, Note_on_c, 0, 69, 0
2, 64032, Note_on_c, 0, 77, 100
2, 64128, Note_on_c, 0, 77, 0
2, 64176, Note_on_c, 0, 76, 100
2, 64272, Note_on_c, 0, 76, 0
2, 64272, Note_on_c, 0, 74, 100
2, 64364, Note_on_c, 0, 77, 100
2, 64368, Note_on_c, 0, 74, 0
2, 64460, Note_on_c, 0, 77, 0
2, 64464, Note_on_c, 0, 74, 100
2, 64560, Note_on_c, 0, 74, 0
2, 64560, Note_on_c, 0, 72, 100
2, 64656, Note_on_c, 0, 72, 0
2, 64656, Note_on_c, 0, 72, 100
2, 64752, Note_on_c, 0, 72, 0
2, 64752, Note_on_c, 0, 72, 100
2, 64800, Note_on_c, 0, 72, 100
2, 64848, Note_on_c, 0, 72, 0
2, 64896, Note_on_c, 0, 72, 0
2, 64896, Note_on_c, 0, 72, 100
2, 64992, Note_on_c, 0, 72, 0
2, 64992, Note_on_c, 0, 72, 100
2, 65040, Note_on_c, 0, 69, 100
2, 65088, Note_on_c, 0, 72, 0
2, 65136, Note_on_c, 0, 69, 0
2, 65136, Note_on_c, 0, 71, 100
2, 65232, Note_on_c, 0, 71, 0
2, 65232, Note_on_c, 0, 72, 100
2, 65328, Note_on_c, 0, 72, 0
2, 65360, Note_on_c, 0, 72, 100
2, 65456, Note_on_c, 0, 72, 0
2, 65456, Note_on_c, 0, 74, 100
2, 65552, Note_on_c, 0, 74, 0
2, 65712, Note_on_c, 0, 72, 100
2, 65808, Note_on_c, 0, 72, 0
2, 65808, Note_on_c, 0, 72, 100
2, 65904, Note_on_c, 0, 72, 0
2, 65952, Note_on_c, 0, 72, 100
2, 66048, Note_on_c, 0, 72, 0
2, 66048, Note_on_c, 0, 76, 100
2, 66144, Note_on_c, 0, 76, 0
2, 66192, Note_on_c, 0, 74, 100
2, 66288, Note_on_c, 0, 74, 0
2, 66288, Note_on_c, 0, 76, 100
2, 66384, Note_on_c, 0, 76, 0
2, 66384, Note_on_c, 0, 74, 100
2, 66480, Note_on_c, 0, 74, 0
2, 66480, Note_on_c, 0, 76, 100
2, 66576, Note_on_c, 0, 76, 0
2, 66736, Note_on_c, 0, 74, 100
2, 66832, Note_on_c, 0, 74, 0
2, 66832, Note_on_c, 0, 76, 100
2, 66928, Note_on_c, 0, 76, 0
2, 66928, Note_on_c, 0, 74, 100
2, 67024, Note_on_c, 0, 74, 0
2, 67024, Note_on_c, 0, 74, 100
2, 67120, Note_on_c, 0, 74, 0
2, 67168, Note_on_c, 0, 74, 100
2, 67264, Note_on_c, 0, 74, 0
2, 67264, Note_on_c, 0, 74, 100
2, 67360, Note_on_c, 0, 74, 0
2, 67360, Note_on_c, 0, 72, 100
2, 67456, Note_on_c, 0, 72, 0
2, 67456, Note_on_c, 0, 67, 100
2, 67552, Note_on_c, 0, 67, 0
2, 67552, Note_on_c, 0, 72, 100
2, 67648, Note_on_c, 0, 72, 0
2, 67648, Note_on_c, 0, 72, 100
2, 67744, Note_on_c, 0, 72, 0
2, 67744, Note_on_c, 0, 69, 100
2, 67840, Note_on_c, 0, 69, 0
2, 67840, Note_on_c, 0, 72, 100
2, 67936, Note_on_c, 0, 72, 0
2, 67936, Note_on_c, 0, 71, 100
2, 68032, Note_on_c, 0, 71, 0
2, 68032, Note_on_c, 0, 72, 100
2, 68128, Note_on_c, 0, 72, 0
2, 68128, Note_on_c, 0, 77, 100
2, 68224, Note_on_c, 0, 77, 0
2, 68224, Note_on_c, 0, 74, 100
2, 68320, Note_on_c, 0, 74, 0
2, 68320, Note_on_c, 0, 74, 100
2, 68416, Note_on_c, 0, 74, 0
2, 68464, Note_on_c, 0, 72, 100
2, 68560, Note_on_c, 0, 72, 0
2, 68560, Note_on_c, 0, 72, 100
2, 68656, Note_on_c, 0, 72, 0
2, 69296, Note_on_c, 0, 72, 100
2, 69320, Note_on_c, 0, 77, 100
2, 69344, Note_on_c, 0, 72, 0
2, 69368, Note_on_c, 0, 77, 0
2, 69368, Note_on_c, 0, 79, 100
2, 69416, Note_on_c, 0, 79, 0
2, 69416, Note_on_c, 0, 77, 100
2, 69440, Note_on_c, 0, 79, 100
2, 69464, Note_on_c, 0, 77, 0
2, 69488, Note_on_c, 0, 79, 0
2, 69496, Note_on_c, 0, 77, 100
2, 69544, Note_on_c, 0, 77, 0
2, 69544, Note_on_c, 0, 79, 100
2, 69592, Note_on_c, 0, 79, 0
2, 69592, Note_on_c, 0, 82, 100
2, 69640, Note_on_c, 0, 82, 0
2, 69648, Note_on_c, 0, 77, 100
2, 69696, Note_on_c, 0, 77, 0
2, 69696, Note_on_c, 0, 79, 100
2, 69744, Note_on_c, 0, 72, 100
2, 69744, Note_on_c, 0, 79, 0
2, 69744, Note_on_c, 0, 77, 100
2, 69792, Note_on_c, 0, 77, 0
2, 69792, Note_on_c, 0, 79, 100
2, 69840, Note_on_c, 0, 72, 0
2, 69840, Note_on_c, 0, 79, 0
2, 69840, Note_on_c, 0, 77, 100
2, 69888, Note_on_c, 0, 77, 0
2, 69888, Note_on_c, 0, 79, 100
2, 69904, Note_on_c, 0, 74, 100
2, 69936, Note_on_c, 0, 79, 0
2, 69936, Note_on_c, 0, 82, 100
2, 69984, Note_on_c, 0, 82, 0
2, 69984, Note_on_c, 0, 84, 100
2, 70000, Note_on_c, 0, 74, 0
2, 70032, Note_on_c, 0, 84, 0
2, 70032, Note_on_c, 0, 77, 100
2, 70048, Note_on_c, 0, 77, 100
2, 70080, Note_on_c, 0, 77, 0
2, 70080, Note_on_c, 0, 79, 100
2, 70128, Note_on_c, 0, 79, 0
2, 70128, Note_on_c, 0, 82, 100
2, 70144, Note_on_c, 0, 77, 0
2, 70176, Note_on_c, 0, 82, 0
2, 70176, Note_on_c, 0, 77, 100
2, 70192, Note_on_c, 0, 76, 100
2, 70224, Note_on_c, 0, 77, 0
2, 70224, Note_on_c, 0, 73, 100
2, 70272, Note_on_c, 0, 73, 0
2, 70272, Note_on_c, 0, 77, 100
2, 70288, Note_on_c, 0, 76, 0
2, 70288, Note_on_c, 0, 74, 100
2, 70320, Note_on_c, 0, 77, 0
2, 70320, Note_on_c, 0, 77, 100
2, 70368, Note_on_c, 0, 74, 100
2, 70368, Note_on_c, 0, 77, 0
2, 70368, Note_on_c, 0, 79, 100
2, 70384, Note_on_c, 0, 74, 0
2, 70392, Note_on_c, 0, 77, 100
2, 70416, Note_on_c, 0, 79, 0
2, 70440, Note_on_c, 0, 77, 0
2, 70464, Note_on_c, 0, 74, 0
2, 70464, Note_on_c, 0, 79, 100
2, 70560, Note_on_c, 0, 79, 0
2, 70560, Note_on_c, 0, 77, 100
2, 70656, Note_on_c, 0, 77, 0
2, 70656, Note_on_c, 0, 72, 100
2, 70704, Note_on_c, 0, 72, 100
2, 70752, Note_on_c, 0, 72, 0
2, 70800, Note_on_c, 0, 72, 0
2, 70800, Note_on_c, 0, 72, 100
2, 70896, Note_on_c, 0, 72, 0
2, 70896, Note_on_c, 0, 72, 100
2, 70992, Note_on_c, 0, 72, 0
2, 70992, Note_on_c, 0, 72, 100
2, 71040, Note_on_c, 0, 72, 100
2, 71088, Note_on_c, 0, 72, 0
2, 71136, Note_on_c, 0, 72, 0
2, 71136, Note_on_c, 0, 71, 100
2, 71232, Note_on_c, 0, 71, 0
2, 71232, Note_on_c, 0, 74, 100
2, 71328, Note_on_c, 0, 74, 0
2, 71328, Note_on_c, 0, 72, 100
2, 71424, Note_on_c, 0, 72, 0
2, 71424, Note_on_c, 0, 72, 100
2, 71520, Note_on_c, 0, 72, 0
2, 71520, Note_on_c, 0, 77, 100
2, 71616, Note_on_c, 0, 77, 0
2, 71616, Note_on_c, 0, 79, 100
2, 71712, Note_on_c, 0, 79, 0
2, 71712, Note_on_c, 0, 74, 100
2, 71808, Note_on_c, 0, 74, 0
2, 71808, Note_on_c, 0, 74, 100
2, 71904, Note_on_c, 0, 74, 0
2, 71904, Note_on_c, 0, 72, 100
2, 72000, Note_on_c, 0, 72, 0
2, 72000, Note_on_c, 0, 72, 100
2, 72096, Note_on_c, 0, 72, 0
2, 72096, Note_on_c, 0, 72, 100
2, 72192, Note_on_c, 0, 72, 0
2, 72192, Note_on_c, 0, 72, 100
2, 72288, Note_on_c, 0, 72, 0
2, 72384, Note_on_c, 0, 72, 100
2, 72480, Note_on_c, 0, 72, 0
2, 72480, Note_on_c, 0, 72, 100
2, 72576, Note_on_c, 0, 72, 0
2, 72576, Note_on_c, 0, 74, 100
2, 72672, Note_on_c, 0, 74, 0
2, 72672, Note_on_c, 0, 77, 100
2, 72768, Note_on_c, 0, 77, 0
2, 72768, Note_on_c, 0, 79, 100
2, 72864, Note_on_c, 0, 79, 0
2, 72864, Note_on_c, 0, 72, 100
2, 72960, Note_on_c, 0, 72, 0
2, 72960, Note_on_c, 0, 77, 100
2, 73056, Note_on_c, 0, 77, 0
2, 73056, Note_on_c, 0, 74, 100
2, 73152, Note_on_c, 0, 74, 0
2, 73152, Note_on_c, 0, 72, 100
2, 73248, Note_on_c, 0, 72, 0
2, 73248, Note_on_c, 0, 71, 100
2, 73344, Note_on_c, 0, 71, 0
2, 73344, Note_on_c, 0, 72, 100
2, 73440, Note_on_c, 0, 72, 0
2, 73440, Note_on_c, 0, 72, 100
2, 73520, Note_on_c, 0, 72, 100
2, 73536, Note_on_c, 0, 72, 0
2, 73616, Note_on_c, 0, 72, 0
2, 73616, Note_on_c, 0, 72, 100
2, 73712, Note_on_c, 0, 72, 0
2, 73712, Note_on_c, 0, 72, 100
2, 73808, Note_on_c, 0, 72, 0
2, 73808, Note_on_c, 0, 72, 100
2, 73904, Note_on_c, 0, 72, 0
2, 73952, Note_on_c, 0, 72, 100
2, 74048, Note_on_c, 0, 72, 0
2, 74048, Note_on_c, 0, 72, 100
2, 74144, Note_on_c, 0, 72, 0
2, 74144, Note_on_c, 0, 72, 100
2, 74240, Note_on_c, 0, 72, 0
2, 74240, Note_on_c, 0, 72, 100
2, 74320, Note_on_c, 0, 72, 100
2, 74336, Note_on_c, 0, 72, 0
2, 74416, Note_on_c, 0, 72, 0
2, 74416, Note_on_c, 0, 72, 100
2, 74504, Note_on_c, 0, 72, 100
2, 74512, Note_on_c, 0, 72, 0
2, 74600, Note_on_c, 0, 72, 0
2, 74656, Note_on_c, 0, 72, 100
2, 74752, Note_on_c, 0, 72, 0
2, 74752, Note_on_c, 0, 72, 100
2, 74848, Note_on_c, 0, 72, 0
2, 74848, Note_on_c, 0, 71, 100
2, 74944, Note_on_c, 0, 71, 0
2, 74944, Note_on_c, 0, 74, 100
2, 75040, Note_on_c, 0, 74, 0
2, 75040, Note_on_c, 0, 72, 100
2, 75136, Note_on_c, 0, 72, 0
2, 75136, Note_on_c, 0, 72, 100
2, 75232, Note_on_c, 0, 72, 0
2, 75232, Note_on_c, 0, 72, 100
2, 75328, Note_on_c, 0, 72, 0
2, 75328, Note_on_c, 0, 72, 100
2, 75424, Note_on_c, 0, 72, 0
2, 75424, Note_on_c, 0, 77, 100
2, 75520, Note_on_c, 0, 77, 0
2, 75520, Note_on_c, 0, 72, 100
2, 75616, Note_on_c, 0, 72, 0
2, 75616, Note_on_c, 0, 72, 100
2, 75712, Note_on_c, 0, 72, 0
2, 75712, Note_on_c, 0, 72, 100
2, 75808, Note_on_c, 0, 72, 0
2, 75808, Note_on_c, 0, 72, 100
2, 75904, Note_on_c, 0, 72, 0
2, 75952, Note_on_c, 0, 72, 100
2, 76000, Note_on_c, 0, 72, 100
2, 76048, Note_on_c, 0, 72, 0
2, 76096, Note_on_c, 0, 72, 0
2, 76096, Note_on_c, 0, 72, 100
2, 76192, Note_on_c, 0, 72, 0
2, 76192, Note_on_c, 0, 72, 100
2, 76288, Note_on_c, 0, 72, 0
2, 76288, Note_on_c, 0, 72, 100
2, 76384, Note_on_c, 0, 72, 0
2, 76448, Note_on_c, 0, 72, 100
2, 76496, Note_on_c, 0, 72, 0
2, 76496, Note_on_c, 0, 72, 100
2, 76544, Note_on_c, 0, 72, 0
2, 76544, Note_on_c, 0, 77, 100
2, 76592, Note_on_c, 0, 77, 0
2, 76592, Note_on_c, 0, 72, 100
2, 76640, Note_on_c, 0, 72, 0
2, 76640, Note_on_c, 0, 72, 100
2, 76688, Note_on_c, 0, 72, 0
2, 76688, Note_on_c, 0, 77, 100
2, 76736, Note_on_c, 0, 77, 0
2, 76736, Note_on_c, 0, 79, 100
2, 76784, Note_on_c, 0, 79, 0
2, 76784, Note_on_c, 0, 74, 100
2, 76832, Note_on_c, 0, 74, 0
2, 76832, Note_on_c, 0, 77, 100
2, 76880, Note_on_c, 0, 77, 0
2, 76880, Note_on_c, 0, 72, 100
2, 76928, Note_on_c, 0, 72, 0
2, 76928, Note_on_c, 0, 77, 100
2, 76975, Note_on_c, 0, 77, 0
2, 76976, Note_on_c, 0, 72, 100
2, 77024, Note_on_c, 0, 72, 0
2, 77024, Note_on_c, 0, 74, 100
2, 77072, Note_on_c, 0, 74, 0
2, 77072, Note_on_c, 0, 79, 100
2, 77120, Note_on_c, 0, 79, 0
2, 77120, Note_on_c, 0, 77, 100
2, 77168, Note_on_c, 0, 77, 0
2, 77168, Note_on_c, 0, 79, 100
2, 77216, Note_on_c, 0, 79, 0
2, 77216, Note_on_c, 0, 77, 100
2, 77264, Note_on_c, 0, 77, 0
2, 77264, Note_on_c, 0, 77, 100
2, 77312, Note_on_c, 0, 77, 0
2, 77312, Note_on_c, 0, 79, 100
2, 77360, Note_on_c, 0, 79, 0
2, 77360, Note_on_c, 0, 82, 100
2, 77408, Note_on_c, 0, 82, 0
2, 77456, Note_on_c, 0, 77, 100
2, 77504, Note_on_c, 0, 77, 0
2, 77504, Note_on_c, 0, 79, 100
2, 77552, Note_on_c, 0, 79, 0
2, 77552, Note_on_c, 0, 77, 100
2, 77600, Note_on_c, 0, 77, 0
2, 77600, Note_on_c, 0, 79, 100
2, 77648, Note_on_c, 0, 79, 0
2, 77648, Note_on_c, 0, 77, 100
2, 77696, Note_on_c, 0, 77, 0
2, 77696, Note_on_c, 0, 77, 100
2, 77744, Note_on_c, 0, 77, 0
2, 77744, Note_on_c, 0, 74, 100
2, 77792, Note_on_c, 0, 74, 0
2, 77792, Note_on_c, 0, 77, 100
2, 77840, Note_on_c, 0, 77, 0
2, 77840, Note_on_c, 0, 81, 100
2, 77888, Note_on_c, 0, 81, 0
2, 77888, Note_on_c, 0, 77, 100
2, 77936, Note_on_c, 0, 77, 0
2, 77936, Note_on_c, 0, 79, 100
2, 77984, Note_on_c, 0, 79, 0
2, 77984, Note_on_c, 0, 72, 100
2, 78032, Note_on_c, 0, 72, 0
2, 78032, Note_on_c, 0, 77, 100
2, 78080, Note_on_c, 0, 77, 0
2, 78080, Note_on_c, 0, 79, 100
2, 78128, Note_on_c, 0, 79, 0
2, 78128, Note_on_c, 0, 84, 100
2, 78176, Note_on_c, 0, 84, 0
2, 78176, Note_on_c, 0, 77, 100
2, 78224, Note_on_c, 0, 77, 0
2, 78224, Note_on_c, 0, 79, 100
2, 78272, Note_on_c, 0, 79, 0
2, 78272, Note_on_c, 0, 77, 100
2, 78320, Note_on_c, 0, 77, 0
2, 78320, Note_on_c, 0, 77, 100
2, 78368, Note_on_c, 0, 77, 0
2, 78368, Note_on_c, 0, 77, 100
2, 78416, Note_on_c, 0, 77, 0
2, 78416, Note_on_c, 0, 77, 100
2, 78464, Note_on_c, 0, 77, 0
2, 78464, Note_on_c, 0, 79, 100
2, 78512, Note_on_c, 0, 79, 0
2, 78512, Note_on_c, 0, 84, 100
2, 78560, Note_on_c, 0, 84, 0
2, 78560, Note_on_c, 0, 77, 100
2, 78608, Note_on_c, 0, 77, 0
2, 78608, Note_on_c, 0, 79, 100
2, 78656, Note_on_c, 0, 79, 0
2, 78656, Note_on_c, 0, 79, 100
2, 78704, Note_on_c, 0, 79, 0
2, 78704, Note_on_c, 0, 77, 100
2, 78752, Note_on_c, 0, 77, 0
2, 78752, Note_on_c, 0, 79, 100
2, 78800, Note_on_c, 0, 79, 0
2, 78800, Note_on_c, 0, 77, 100
2, 78848, Note_on_c, 0, 77, 0
2, 78848, Note_on_c, 0, 77, 100
2, 78896, Note_on_c, 0, 77, 0
2, 78896, Note_on_c, 0, 79, 100
2, 78944, Note_on_c, 0, 79, 0
2, 78944, Note_on_c, 0, 74, 100
2, 78992, Note_on_c, 0, 74, 0
2, 78992, Note_on_c, 0, 79, 100
2, 79040, Note_on_c, 0, 79, 0
2, 79040, Note_on_c, 0, 77, 100
2, 79088, Note_on_c, 0, 77, 0
2, 79088, Note_on_c, 0, 79, 100
2, 79136, Note_on_c, 0, 79, 0
2, 79136, Note_on_c, 0, 77, 100
2, 79184, Note_on_c, 0, 77, 0
2, 79184, Note_on_c, 0, 86, 100
2, 79232, Note_on_c, 0, 86, 0
2, 79232, Note_on_c, 0, 77, 100
2, 79280, Note_on_c, 0, 77, 0
2, 79280, Note_on_c, 0, 84, 100
2, 79328, Note_on_c, 0, 84, 0
2, 79328, Note_on_c, 0, 77, 100
2, 79376, Note_on_c, 0, 77, 0
2, 79376, Note_on_c, 0, 79, 100
2, 79424, Note_on_c, 0, 79, 0
2, 79424, Note_on_c, 0, 77, 100
2, 79472, Note_on_c, 0, 77, 0
2, 79472, Note_on_c, 0, 79, 100
2, 79520, Note_on_c, 0, 79, 0
2, 79520, Note_on_c, 0, 84, 100
2, 79568, Note_on_c, 0, 84, 0
2, 79568, Note_on_c, 0, 77, 100
2, 79616, Note_on_c, 0, 77, 0
2, 79616, Note_on_c, 0, 79, 100
2, 79664, Note_on_c, 0, 79, 0
2, 79664, Note_on_c, 0, 82, 100
2, 79712, Note_on_c, 0, 82, 0
2, 79712, Note_on_c, 0, 77, 100
2, 79760, Note_on_c, 0, 77, 0
2, 80000, Note_on_c, 0, 79, 100
2, 80048, Note_on_c, 0, 79, 0
2, 80048, Note_on_c, 0, 77, 100
2, 80096, Note_on_c, 0, 77, 0
2, 80096, Note_on_c, 0, 79, 100
2, 80144, Note_on_c, 0, 79, 0
2, 80144, Note_on_c, 0, 84, 100
2, 80192, Note_on_c, 0, 84, 0
2, 80192, Note_on_c, 0, 77, 100
2, 80240, Note_on_c, 0, 77, 0
2, 80240, Note_on_c, 0, 79, 100
2, 80288, Note_on_c, 0, 79, 0
2, 80288, Note_on_c, 0, 77, 100
2, 80336, Note_on_c, 0, 77, 0
2, 80336, Note_on_c, 0, 79, 100
2, 80384, Note_on_c, 0, 79, 0
2, 80384, Note_on_c, 0, 77, 100
2, 80432, Note_on_c, 0, 77, 0
2, 80432, Note_on_c, 0, 79, 100
2, 80480, Note_on_c, 0, 79, 0
2, 80480, Note_on_c, 0, 77, 100
2, 80528, Note_on_c, 0, 77, 0
2, 80528, Note_on_c, 0, 79, 100
2, 80576, Note_on_c, 0, 79, 0
2, 81440, Note_on_c, 0, 77, 100
2, 81488, Note_on_c, 0, 77, 0
2, 81488, Note_on_c, 0, 77, 100
2, 81512, Note_on_c, 0, 74, 100
2, 81536, Note_on_c, 0, 77, 0
2, 81560, Note_on_c, 0, 74, 0
2, 81568, Note_on_c, 0, 77, 100
2, 81600, Note_on_c, 0, 79, 100
2, 81616, Note_on_c, 0, 77, 0
2, 81648, Note_on_c, 0, 79, 0
2, 81648, Note_on_c, 0, 79, 100
2, 81696, Note_on_c, 0, 79, 0
2, 81696, Note_on_c, 0, 77, 100
2, 81744, Note_on_c, 0, 77, 0
2, 81744, Note_on_c, 0, 79, 100
2, 81792, Note_on_c, 0, 79, 0
2, 81792, Note_on_c, 0, 77, 100
2, 81840, Note_on_c, 0, 77, 0
2, 81840, Note_on_c, 0, 81, 100
2, 81888, Note_on_c, 0, 81, 0
2, 81888, Note_on_c, 0, 77, 100
2, 81936, Note_on_c, 0, 77, 0
2, 81936, Note_on_c, 0, 82, 100
2, 81984, Note_on_c, 0, 82, 0
2, 81984, Note_on_c, 0, 82, 100
2, 82032, Note_on_c, 0, 82, 0
2, 82032, Note_on_c, 0, 77, 100
2, 82080, Note_on_c, 0, 77, 0
2, 82080, Note_on_c, 0, 79, 100
2, 82128, Note_on_c, 0, 79, 0
2, 82128, Note_on_c, 0, 77, 100
2, 82176, Note_on_c, 0, 77, 0
2, 82176, Note_on_c, 0, 79, 100
2, 82224, Note_on_c, 0, 79, 0
2, 82224, Note_on_c, 0, 77, 100
2, 82272, Note_on_c, 0, 77, 0
2, 82272, Note_on_c, 0, 79, 100
2, 82320, Note_on_c, 0, 79, 0
2, 82320, Note_on_c, 0, 77, 100
2, 82368, Note_on_c, 0, 77, 0
2, 82368, Note_on_c, 0, 77, 100
2, 82416, Note_on_c, 0, 77, 0
2, 82416, Note_on_c, 0, 79, 100
2, 82464, Note_on_c, 0, 79, 0
2, 82464, Note_on_c, 0, 77, 100
2, 82512, Note_on_c, 0, 77, 0
2, 82512, Note_on_c, 0, 79, 100
2, 82608, Note_on_c, 0, 84, 100
2, 82752, Note_on_c, 0, 84, 100
2, 82912, Note_on_c, 0, 84, 100
2, 82992, Note_on_c, 0, 79, 0
2, 82992, Note_on_c, 0, 84, 0
2, 83104, Note_on_c, 0, 84, 100
2, 83136, Note_on_c, 0, 84, 0
2, 83296, Note_on_c, 0, 84, 0
2, 83296, Note_on_c, 0, 86, 100
2, 83488, Note_on_c, 0, 84, 0
2, 83648, Note_on_c, 0, 84, 100
2, 83680, Note_on_c, 0, 86, 0
2, 84320, Note_on_c, 0, 86, 100
2, 84416, Note_on_c, 0, 84, 0
2, 84416, Note_on_c, 0, 86, 0
2, 84416, Note_on_c, 0, 82, 100
2, 84512, Note_on_c, 0, 82, 0
2, 84512, Note_on_c, 0, 84, 100
2, 84608, Note_on_c, 0, 84, 0
2, 84608, Note_on_c, 0, 82, 100
2, 84704, Note_on_c, 0, 82, 0
2, 84704, Note_on_c, 0, 77, 100
2, 84800, Note_on_c, 0, 77, 0
2, 84800, Note_on_c, 0, 79, 100
2, 84896, Note_on_c, 0, 79, 0
2, 84896, Note_on_c, 0, 84, 100
2, 84992, Note_on_c, 0, 84, 0
2, 84992, Note_on_c, 0, 81, 100
2, 85088, Note_on_c, 0, 81, 0
2, 85088, Note_on_c, 0, 82, 100
2, 85184, Note_on_c, 0, 82, 0
2, 85184, Note_on_c, 0, 86, 100
2, 85232, Note_on_c, 0, 86, 0
2, 85232, Note_on_c, 0, 81, 100
2, 85280, Note_on_c, 0, 81, 0
2, 85280, Note_on_c, 0, 86, 100
2, 85328, Note_on_c, 0, 86, 0
2, 85328, Note_on_c, 0, 77, 100
2, 85376, Note_on_c, 0, 77, 0
2, 85376, Note_on_c, 0, 79, 100
2, 85424, Note_on_c, 0, 79, 0
2, 85424, Note_on_c, 0, 81, 100
2, 85472, Note_on_c, 0, 81, 0
2, 85472, Note_on_c, 0, 86, 100
2, 85520, Note_on_c, 0, 86, 0
2, 85520, Note_on_c, 0, 82, 100
2, 85568, Note_on_c, 0, 82, 0
2, 85568, Note_on_c, 0, 79, 100
2, 85616, Note_on_c, 0, 79, 0
2, 85616, Note_on_c, 0, 77, 100
2, 85664, Note_on_c, 0, 77, 0
2, 85664, Note_on_c, 0, 77, 100
2, 85712, Note_on_c, 0, 77, 0
2, 85712, Note_on_c, 0, 79, 100
2, 85760, Note_on_c, 0, 79, 0
2, 85760, Note_on_c, 0, 79, 100
2, 85808, Note_on_c, 0, 79, 0
2, 85808, Note_on_c, 0, 77, 100
2, 85856, Note_on_c, 0, 77, 0
2, 85856, Note_on_c, 0, 79, 100
2, 85904, Note_on_c, 0, 79, 0
2, 85904, Note_on_c, 0, 77, 100
2, 85952, Note_on_c, 0, 77, 0
2, 85952, Note_on_c, 0, 79, 100
2, 86000, Note_on_c, 0, 79, 0
2, 86000, Note_on_c, 0, 82, 100
2, 86048, Note_on_c, 0, 82, 0
2, 86048, Note_on_c, 0, 82, 100
2, 86096, Note_on_c, 0, 82, 0
2, 86096, Note_on_c, 0, 77, 100
2, 86144, Note_on_c, 0, 77, 0
2, 86144, Note_on_c, 0, 81, 100
2, 86192, Note_on_c, 0, 81, 0
2, 86192, Note_on_c, 0, 77, 100
2, 86240, Note_on_c, 0, 77, 0
2, 86240, Note_on_c, 0, 79, 100
2, 86288, Note_on_c, 0, 79, 0
2, 86288, Note_on_c, 0, 82, 100
2, 86336, Note_on_c, 0, 82, 0
2, 86336, Note_on_c, 0, 77, 100
2, 86384, Note_on_c, 0, 77, 0
2, 86384, Note_on_c, 0, 79, 100
2, 86432, Note_on_c, 0, 79, 0
2, 86432, Note_on_c, 0, 77, 100
2, 86480, Note_on_c, 0, 77, 0
2, 86480, Note_on_c, 0, 79, 100
2, 86528, Note_on_c, 0, 79, 0
2, 86528, Note_on_c, 0, 77, 100
2, 86576, Note_on_c, 0, 77, 0
2, 86576, Note_on_c, 0, 79, 100
2, 86624, Note_on_c, 0, 79, 0
2, 86624, Note_on_c, 0, 77, 100
2, 86672, Note_on_c, 0, 77, 0
2, 86672, Note_on_c, 0, 79, 100
2, 86720, Note_on_c, 0, 79, 0
2, 86720, Note_on_c, 0, 77, 100
2, 86768, Note_on_c, 0, 77, 0
2, 86768, Note_on_c, 0, 86, 100
2, 86816, Note_on_c, 0, 86, 0
2, 86816, Note_on_c, 0, 77, 100
2, 86864, Note_on_c, 0, 77, 0
2, 86864, Note_on_c, 0, 73, 100
2, 86912, Note_on_c, 0, 73, 0
2, 86912, Note_on_c, 0, 77, 100
2, 86960, Note_on_c, 0, 77, 0
2, 86960, Note_on_c, 0, 81, 100
2, 87008, Note_on_c, 0, 81, 0
2, 87008, Note_on_c, 0, 82, 100
2, 87056, Note_on_c, 0, 82, 0
2, 87056, Note_on_c, 0, 77, 100
2, 87104, Note_on_c, 0, 77, 0
2, 87104, Note_on_c, 0, 79, 100
2, 87152, Note_on_c, 0, 79, 0
2, 87152, Note_on_c, 0, 77, 100
2, 87200, Note_on_c, 0, 77, 0
2, 87200, Note_on_c, 0, 79, 100
2, 87248, Note_on_c, 0, 79, 0
2, 87248, Note_on_c, 0, 82, 100
2, 87296, Note_on_c, 0, 82, 0
2, 87296, Note_on_c, 0, 77, 100
2, 87344, Note_on_c, 0, 77, 0
2, 87344, Note_on_c, 0, 77, 100
2, 87392, Note_on_c, 0, 77, 0
2, 87392, Note_on_c, 0, 79, 100
2, 87440, Note_on_c, 0, 79, 0
2, 87440, Note_on_c, 0, 84, 100
2, 87488, Note_on_c, 0, 84, 0
2, 87488, Note_on_c, 0, 86, 100
2, 87536, Note_on_c, 0, 86, 0
2, 87536, Note_on_c, 0, 82, 100
2, 87584, Note_on_c, 0, 82, 0
2, 87584, Note_on_c, 0, 77, 100
2, 87632, Note_on_c, 0, 77, 0
2, 87632, Note_on_c, 0, 77, 100
2, 87680, Note_on_c, 0, 77, 0
2, 87680, Note_on_c, 0, 73, 100
2, 87728, Note_on_c, 0, 73, 0
2, 87728, Note_on_c, 0, 77, 100
2, 87776, Note_on_c, 0, 77, 0
2, 87776, Note_on_c, 0, 73, 100
2, 87824, Note_on_c, 0, 73, 0
2, 87824, Note_on_c, 0, 77, 100
2, 87872, Note_on_c, 0, 77, 0
2, 87872, Note_on_c, 0, 77, 100
2, 87920, Note_on_c, 0, 77, 0
2, 87920, Note_on_c, 0, 79, 100
2, 87968, Note_on_c, 0, 79, 0
2, 87968, Note_on_c, 0, 77, 100
2, 88016, Note_on_c, 0, 77, 0
2, 88016, Note_on_c, 0, 79, 100
2, 88064, Note_on_c, 0, 79, 0
2, 88064, Note_on_c, 0, 84, 100
2, 88112, Note_on_c, 0, 84, 0
2, 88112, Note_on_c, 0, 82, 100
2, 88160, Note_on_c, 0, 82, 0
2, 88160, Note_on_c, 0, 79, 100
2, 88208, Note_on_c, 0, 79, 0
2, 88208, Note_on_c, 0, 82, 100
2, 88256, Note_on_c, 0, 82, 0
2, 88256, Note_on_c, 0, 86, 100
2, 88304, Note_on_c, 0, 86, 0
2, 88304, Note_on_c, 0, 82, 100
2, 88352, Note_on_c, 0, 82, 0
2, 88368, Note_on_c, 0, 84, 100
2, 88400, Note_on_c, 0, 86, 100
2, 88416, Note_on_c, 0, 84, 0
2, 88448, Note_on_c, 0, 86, 0
2, 88448, Note_on_c, 0, 86, 100
2, 88496, Note_on_c, 0, 86, 0
2, 88496, Note_on_c, 0, 82, 100
2, 88544, Note_on_c, 0, 82, 0
2, 88544, Note_on_c, 0, 77, 100
2, 88592, Note_on_c, 0, 77, 0
2, 88592, Note_on_c, 0, 82, 100
2, 88640, Note_on_c, 0, 82, 0
2, 88640, Note_on_c, 0, 79, 100
2, 88688, Note_on_c, 0, 79, 0
2, 88688, Note_on_c, 0, 82, 100
2, 88736, Note_on_c, 0, 82, 0
2, 88736, Note_on_c, 0, 77, 100
2, 88784, Note_on_c, 0, 77, 0
2, 88784, Note_on_c, 0, 73, 100
2, 88832, Note_on_c, 0, 73, 0
2, 88832, Note_on_c, 0, 77, 100
2, 88880, Note_on_c, 0, 77, 0
2, 88880, Note_on_c, 0, 77, 100
2, 88928, Note_on_c, 0, 77, 0
2, 88928, Note_on_c, 0, 81, 100
2, 88976, Note_on_c, 0, 81, 0
2, 88976, Note_on_c, 0, 77, 100
2, 89024, Note_on_c, 0, 77, 0
2, 89024, Note_on_c, 0, 79, 100
2, 89072, Note_on_c, 0, 79, 0
2, 89072, Note_on_c, 0, 82, 100
2, 89120, Note_on_c, 0, 82, 0
2, 89120, Note_on_c, 0, 77, 100
2, 89152, Note_on_c, 0, 77, 0
2, 89216, Note_on_c, 0, 79, 100
2, 89248, Note_on_c, 0, 79, 0
2, 89312, Note_on_c, 0, 77, 100
2, 89344, Note_on_c, 0, 77, 0
2, 89504, Note_on_c, 0, 79, 100
2, 89536, Note_on_c, 0, 79, 0
2, 89632, Note_on_c, 0, 82, 100
2, 89664, Note_on_c, 0, 82, 0
2, 89728, Note_on_c, 0, 79, 100
2, 89728, Note_on_c, 0, 82, 100
2, 89760, Note_on_c, 0, 79, 0
2, 89760, Note_on_c, 0, 82, 0
2, 89920, Note_on_c, 0, 84, 100
2, 89920, Note_on_c, 0, 90, 100
2, 89952, Note_on_c, 0, 84, 0
2, 89952, Note_on_c, 0, 90, 0
2, 90016, Note_on_c, 0, 88, 100
2, 90048, Note_on_c, 0, 88, 0
2, 90208, Note_on_c, 0, 90, 100
2, 90240, Note_on_c, 0, 90, 0
2, 90256, Note_on_c, 0, 94, 100
2, 90288, Note_on_c, 0, 94, 0
2, 90352, Note_on_c, 0, 94, 100
2, 90448, Note_on_c, 0, 94, 0
2, 90448, Note_on_c, 0, 94, 100
2, 90480, Note_on_c, 0, 94, 0
2, 90544, Note_on_c, 0, 88, 100
2, 90640, Note_on_c, 0, 88, 0
2, 90640, Note_on_c, 0, 93, 100
2, 90672, Note_on_c, 0, 93, 0
2, 90736, Note_on_c, 0, 94, 100
2, 90832, Note_on_c, 0, 94, 0
2, 90832, Note_on_c, 0, 93, 100
2, 90864, Note_on_c, 0, 93, 0
2, 90928, Note_on_c, 0, 90, 100
2, 90960, Note_on_c, 0, 90, 0
2, 91024, Note_on_c, 0, 90, 100
2, 91056, Note_on_c, 0, 90, 0
2, 91120, Note_on_c, 0, 90, 100
2, 91216, Note_on_c, 0, 90, 0
2, 91216, Note_on_c, 0, 84, 100
2, 91264, Note_on_c, 0, 84, 0
2, 91264, Note_on_c, 0, 82, 100
2, 91312, Note_on_c, 0, 82, 0
2, 91312, Note_on_c, 0, 82, 100
2, 91360, Note_on_c, 0, 82, 0
2, 95360, Note_on_c, 0, 77, 100
2, 95408, Note_on_c, 0, 77, 0
2, 95408, Note_on_c, 0, 77, 100
2, 95456, Note_on_c, 0, 77, 0
2, 95456, Note_on_c, 0, 73, 100
2, 95504, Note_on_c, 0, 73, 0
2, 95504, Note_on_c, 0, 77, 100
2, 95552, Note_on_c, 0, 77, 0
2, 95552, Note_on_c, 0, 73, 100
2, 95600, Note_on_c, 0, 73, 0
2, 95600, Note_on_c, 0, 77, 100
2, 95648, Note_on_c, 0, 77, 0
2, 95648, Note_on_c, 0, 73, 100
2, 95696, Note_on_c, 0, 73, 0
2, 95696, Note_on_c, 0, 77, 100
2, 95744, Note_on_c, 0, 77, 0
2, 95744, Note_on_c, 0, 73, 100
2, 95792, Note_on_c, 0, 73, 0
2, 95792, Note_on_c, 0, 77, 100
2, 95840, Note_on_c, 0, 77, 0
2, 95840, Note_on_c, 0, 73, 100
2, 95888, Note_on_c, 0, 73, 0
2, 95888, Note_on_c, 0, 77, 100
2, 95936, Note_on_c, 0, 77, 0
2, 95936, Note_on_c, 0, 73, 100
2, 95984, Note_on_c, 0, 73, 0
2, 95984, Note_on_c, 0, 77, 100
2, 96032, Note_on_c, 0, 77, 0
2, 96032, Note_on_c, 0, 73, 100
2, 96080, Note_on_c, 0, 73, 0
2, 96080, Note_on_c, 0, 77, 100
2, 96128, Note_on_c, 0, 77, 0
2, 96128, End_track
0, 0, End_of_file