0, 0, Header, 1, 2, 120
1, 0, Start_track
1, 0, Time_signature, 4, 2, 24, 8
1, 0, End_track
2, 0, Start_track
2, 0, MIDI_port, 0
2, 0, Program_c, 0, 56
2, 0, Note_on_c, 0, 76, 100
2, 0, Note_on_c, 0, 76, 100
2, 30, Note_on_c, 0, 76, 100
2, 30, Note_on_c, 0, 71, 100
2, 49, Note_on_c, 0, 76, 0
2, 59, Note_on_c, 0, 76, 0
2, 59, Note_on_c, 0, 71, 0
2, 60, Note_on_c, 0, 76, 100
2, 60, Note_on_c, 0, 76, 100
2, 89, Note_on_c, 0, 76, 0
2, 119, Note_on_c, 0, 76, 0
2, 119, Note_on_c, 0, 76, 0
2, 180, Note_on_c, 0, 76, 100
2, 180, Note_on_c, 0, 76, 100
2, 200, Note_on_c, 0, 76, 100
2, 210, Note_on_c, 0, 76, 100
2, 229, Note_on_c, 0, 76, 0
2, 230, Note_on_c, 0, 76, 100
2, 230, Note_on_c, 0, 76, 100
2, 239, Note_on_c, 0, 76, 0
2, 239, Note_on_c, 0, 76, 0
2, 239, Note_on_c, 0, 76, 0
2, 259, Note_on_c, 0, 76, 0
2, 259, Note_on_c, 0, 76, 0
2, 290, Note_on_c, 0, 71, 100
2, 300, Note_on_c, 0, 76, 100
2, 319, Note_on_c, 0, 71, 0
2, 449, Note_on_c, 0, 76, 0
2, 660, Note_on_c, 0, 76, 100
2, 720, Note_on_c, 0, 76, 100
2, 839, Note_on_c, 0, 76, 0
2, 899, Note_on_c, 0, 76, 0
2, 940, Note_on_c, 0, 76, 100
2, 1020, Note_on_c, 0, 81, 100
2, 1049, Note_on_c, 0, 81, 0
2, 1050, Note_on_c, 0, 79, 100
2, 1079, Note_on_c, 0, 79, 0
2, 1080, Note_on_c, 0, 79, 100
2, 1119, Note_on_c, 0, 76, 0
2, 1139, Note_on_c, 0, 79, 0
2, 1140, Note_on_c, 0, 78, 100
2, 1199, Note_on_c, 0, 78, 0
2, 1200, Note_on_c, 0, 76, 100
2, 1259, Note_on_c, 0, 76, 0
2, 1320, Note_on_c, 0, 76, 100
2, 1379, Note_on_c, 0, 76, 0
2, 1380, Note_on_c, 0, 76, 100
2, 1409, Note_on_c, 0, 76, 0
2, 1430, Note_on_c, 0, 76, 100
2, 1459, Note_on_c, 0, 76, 0
2, 1460, Note_on_c, 0, 79, 100
2, 1519, Note_on_c, 0, 79, 0
2, 1520, Note_on_c, 0, 79, 100
2, 1579, Note_on_c, 0, 79, 0
2, 1580, Note_on_c, 0, 76, 100
2, 1609, Note_on_c, 0, 76, 0
2, 1610, Note_on_c, 0, 78, 100
2, 1639, Note_on_c, 0, 78, 0
2, 1640, Note_on_c, 0, 76, 100
2, 1699, Note_on_c, 0, 76, 0
2, 1920, Note_on_c, 0, 76, 100
2, 1979, Note_on_c, 0, 76, 0
2, 1980, Note_on_c, 0, 76, 100
2, 1990, Note_on_c, 0, 76, 100
2, 2009, Note_on_c, 0, 76, 0
2, 2019, Note_on_c, 0, 76, 0
2, 2040, Note_on_c, 0, 79, 100
2, 2099, Note_on_c, 0, 79, 0
2, 2100, Note_on_c, 0, 76, 100
2, 2159, Note_on_c, 0, 76, 0
2, 2160, Note_on_c, 0, 76, 100
2, 2219, Note_on_c, 0, 76, 0
2, 2220, Note_on_c, 0, 76, 100
2, 2279, Note_on_c, 0, 76, 0
2, 2280, Note_on_c, 0, 76, 100
2, 2300, Note_on_c, 0, 76, 100
2, 2329, Note_on_c, 0, 76, 0
2, 2339, Note_on_c, 0, 76, 0
2, 2340, Note_on_c, 0, 76, 100
2, 2360, Note_on_c, 0, 76, 100
2, 2399, Note_on_c, 0, 76, 0
2, 2419, Note_on_c, 0, 76, 0
2, 2420, Note_on_c, 0, 76, 100
2, 2479, Note_on_c, 0, 76, 0
2, 2480, Note_on_c, 0, 74, 100
2, 2500, Note_on_c, 0, 76, 100
2, 2539, Note_on_c, 0, 74, 0
2, 2559, Note_on_c, 0, 76, 0
2, 2560, Note_on_c, 0, 76, 100
2, 2589, Note_on_c, 0, 76, 0
2, 2620, Note_on_c, 0, 76, 100
2, 2679, Note_on_c, 0, 76, 0
2, 2680, Note_on_c, 0, 71, 100
2, 2739, Note_on_c, 0, 71, 0
2, 2740, Note_on_c, 0, 76, 100
2, 2799, Note_on_c, 0, 76, 0
2, 2800, Note_on_c, 0, 78, 100
2, 2859, Note_on_c, 0, 78, 0
2, 2860, Note_on_c, 0, 76, 100
2, 2889, Note_on_c, 0, 76, 0
2, 2980, Note_on_c, 0, 76, 100
2, 3009, Note_on_c, 0, 76, 0
2, 3020, Note_on_c, 0, 76, 100
2, 3040, Note_on_c, 0, 76, 100
2, 3049, Note_on_c, 0, 76, 0
2, 3060, Note_on_c, 0, 76, 100
2, 3099, Note_on_c, 0, 76, 0
2, 3119, Note_on_c, 0, 76, 0
2, 3120, Note_on_c, 0, 71, 100
2, 3179, Note_on_c, 0, 71, 0
2, 3180, Note_on_c, 0, 71, 100
2, 3239, Note_on_c, 0, 71, 0
2, 3240, Note_on_c, 0, 76, 100
2, 3299, Note_on_c, 0, 76, 0
2, 3300, Note_on_c, 0, 76, 100
2, 3329, Note_on_c, 0, 76, 0
2, 3360, Note_on_c, 0, 76, 100
2, 3419, Note_on_c, 0, 76, 0
2, 3420, Note_on_c, 0, 74, 100
2, 3479, Note_on_c, 0, 74, 0
2, 3540, Note_on_c, 0, 74, 100
2, 3599, Note_on_c, 0, 74, 0
2, 3600, Note_on_c, 0, 74, 100
2, 3659, Note_on_c, 0, 74, 0
2, 3720, Note_on_c, 0, 71, 100
2, 3779, Note_on_c, 0, 71, 0
2, 3780, Note_on_c, 0, 71, 100
2, 3839, Note_on_c, 0, 71, 0
2, 3840, Note_on_c, 0, 76, 100
2, 3899, Note_on_c, 0, 76, 0
2, 3960, Note_on_c, 0, 74, 100
2, 4019, Note_on_c, 0, 74, 0
2, 4080, Note_on_c, 0, 76, 100
2, 4139, Note_on_c, 0, 76, 0
2, 4200, Note_on_c, 0, 71, 100
2, 4259, Note_on_c, 0, 71, 0
2, 4320, Note_on_c, 0, 74, 100
2, 4379, Note_on_c, 0, 74, 0
2, 4440, Note_on_c, 0, 74, 100
2, 4499, Note_on_c, 0, 74, 0
2, 4560, Note_on_c, 0, 71, 100
2, 4619, Note_on_c, 0, 71, 0
2, 4620, Note_on_c, 0, 76, 100
2, 4649, Note_on_c, 0, 76, 0
2, 4740, Note_on_c, 0, 76, 100
2, 4769, Note_on_c, 0, 76, 0
2, 4800, Note_on_c, 0, 76, 100
2, 4859, Note_on_c, 0, 76, 0
2, 4920, Note_on_c, 0, 74, 100
2, 4979, Note_on_c, 0, 74, 0
2, 5040, Note_on_c, 0, 74, 100
2, 5099, Note_on_c, 0, 74, 0
2, 5160, Note_on_c, 0, 74, 100
2, 5219, Note_on_c, 0, 74, 0
2, 5280, Note_on_c, 0, 71, 100
2, 5339, Note_on_c, 0, 71, 0
2, 5340, Note_on_c, 0, 76, 100
2, 5369, Note_on_c, 0, 76, 0
2, 5460, Note_on_c, 0, 76, 100
2, 5489, Note_on_c, 0, 76, 0
2, 5580, Note_on_c, 0, 76, 100
2, 5639, Note_on_c, 0, 76, 0
2, 5640, Note_on_c, 0, 71, 100
2, 5699, Note_on_c, 0, 71, 0
2, 5760, Note_on_c, 0, 71, 100
2, 5819, Note_on_c, 0, 71, 0
2, 5880, Note_on_c, 0, 74, 100
2, 5939, Note_on_c, 0, 74, 0
2, 6000, Note_on_c, 0, 74, 100
2, 6059, Note_on_c, 0, 74, 0
2, 6120, Note_on_c, 0, 69, 100
2, 6179, Note_on_c, 0, 69, 0
2, 6240, Note_on_c, 0, 71, 100
2, 6299, Note_on_c, 0, 71, 0
2, 6320, Note_on_c, 0, 71, 100
2, 6379, Note_on_c, 0, 71, 0
2, 6440, Note_on_c, 0, 71, 100
2, 6499, Note_on_c, 0, 71, 0
2, 6560, Note_on_c, 0, 76, 100
2, 6619, Note_on_c, 0, 76, 0
2, 6680, Note_on_c, 0, 76, 100
2, 6739, Note_on_c, 0, 76, 0
2, 6740, Note_on_c, 0, 76, 100
2, 6769, Note_on_c, 0, 76, 0
2, 6860, Note_on_c, 0, 76, 100
2, 6919, Note_on_c, 0, 76, 0
2, 6920, Note_on_c, 0, 76, 100
2, 6979, Note_on_c, 0, 76, 0
2, 6980, Note_on_c, 0, 74, 100
2, 7039, Note_on_c, 0, 74, 0
2, 7040, Note_on_c, 0, 76, 100
2, 7099, Note_on_c, 0, 76, 0
2, 7160, Note_on_c, 0, 79, 100
2, 7219, Note_on_c, 0, 79, 0
2, 7280, Note_on_c, 0, 76, 100
2, 7339, Note_on_c, 0, 76, 0
2, 7340, Note_on_c, 0, 76, 100
2, 7369, Note_on_c, 0, 76, 0
2, 7400, Note_on_c, 0, 76, 100
2, 7459, Note_on_c, 0, 76, 0
2, 7520, Note_on_c, 0, 74, 100
2, 7579, Note_on_c, 0, 74, 0
2, 7640, Note_on_c, 0, 74, 100
2, 7699, Note_on_c, 0, 74, 0
2, 7760, Note_on_c, 0, 74, 100
2, 7819, Note_on_c, 0, 74, 0
2, 7880, Note_on_c, 0, 74, 100
2, 7939, Note_on_c, 0, 74, 0
2, 7940, Note_on_c, 0, 76, 100
2, 7960, Note_on_c, 0, 76, 100
2, 7969, Note_on_c, 0, 76, 0
2, 7989, Note_on_c, 0, 76, 0
2, 8020, Note_on_c, 0, 76, 100
2, 8200, Note_on_c, 0, 74, 100
2, 8212, Note_on_c, 0, 76, 0
2, 8259, Note_on_c, 0, 74, 0
2, 8320, Note_on_c, 0, 74, 100
2, 8379, Note_on_c, 0, 74, 0
2, 8440, Note_on_c, 0, 74, 100
2, 8499, Note_on_c, 0, 74, 0
2, 8560, Note_on_c, 0, 74, 100
2, 8619, Note_on_c, 0, 74, 0
2, 8660, Note_on_c, 0, 76, 100
2, 8680, Note_on_c, 0, 76, 100
2, 8689, Note_on_c, 0, 76, 0
2, 8739, Note_on_c, 0, 76, 0
2, 8740, Note_on_c, 0, 76, 100
2, 8769, Note_on_c, 0, 76, 0
2, 8860, Note_on_c, 0, 76, 100
2, 8889, Note_on_c, 0, 76, 0
2, 8920, Note_on_c, 0, 76, 100
2, 8979, Note_on_c, 0, 76, 0
2, 9040, Note_on_c, 0, 69, 100
2, 9060, Note_on_c, 0, 71, 100
2, 9099, Note_on_c, 0, 69, 0
2, 9119, Note_on_c, 0, 71, 0
2, 9280, Note_on_c, 0, 71, 100
2, 9339, Note_on_c, 0, 71, 0
2, 9400, Note_on_c, 0, 74, 100
2, 9459, Note_on_c, 0, 74, 0
2, 9460, Note_on_c, 0, 74, 100
2, 9480, Note_on_c, 0, 76, 100
2, 9519, Note_on_c, 0, 74, 0
2, 9539, Note_on_c, 0, 76, 0
2, 9540, Note_on_c, 0, 76, 100
2, 9569, Note_on_c, 0, 76, 0
2, 9660, Note_on_c, 0, 76, 100
2, 9689, Note_on_c, 0, 76, 0
2, 9720, Note_on_c, 0, 76, 100
2, 9779, Note_on_c, 0, 76, 0
2, 9840, Note_on_c, 0, 74, 100
2, 9899, Note_on_c, 0, 74, 0
2, 9960, Note_on_c, 0, 74, 100
2, 10019, Note_on_c, 0, 74, 0
2, 10080, Note_on_c, 0, 74, 100
2, 10139, Note_on_c, 0, 74, 0
2, 10200, Note_on_c, 0, 74, 100
2, 10259, Note_on_c, 0, 74, 0
2, 10320, Note_on_c, 0, 71, 100
2, 10379, Note_on_c, 0, 71, 0
2, 10380, Note_on_c, 0, 76, 100
2, 10409, Note_on_c, 0, 76, 0
2, 10500, Note_on_c, 0, 76, 100
2, 10529, Note_on_c, 0, 76, 0
2, 10560, Note_on_c, 0, 76, 100
2, 10619, Note_on_c, 0, 76, 0
2, 10680, Note_on_c, 0, 69, 100
2, 10739, Note_on_c, 0, 69, 0
2, 10800, Note_on_c, 0, 71, 100
2, 10859, Note_on_c, 0, 71, 0
2, 10920, Note_on_c, 0, 71, 100
2, 10979, Note_on_c, 0, 71, 0
2, 11040, Note_on_c, 0, 74, 100
2, 11099, Note_on_c, 0, 74, 0
2, 11160, Note_on_c, 0, 74, 100
2, 11219, Note_on_c, 0, 74, 0
2, 11220, Note_on_c, 0, 76, 100
2, 11279, Note_on_c, 0, 76, 0
2, 11380, Note_on_c, 0, 76, 100
2, 11400, Note_on_c, 0, 76, 100
2, 11409, Note_on_c, 0, 76, 0
2, 11459, Note_on_c, 0, 76, 0
2, 11520, Note_on_c, 0, 74, 100
2, 11579, Note_on_c, 0, 74, 0
2, 11640, Note_on_c, 0, 74, 100
2, 11699, Note_on_c, 0, 74, 0
2, 11760, Note_on_c, 0, 71, 100
2, 11819, Note_on_c, 0, 71, 0
2, 11880, Note_on_c, 0, 71, 100
2, 11939, Note_on_c, 0, 71, 0
2, 11940, Note_on_c, 0, 71, 100
2, 11969, Note_on_c, 0, 71, 0
2, 12060, Note_on_c, 0, 76, 100
2, 12089, Note_on_c, 0, 76, 0
2, 12120, Note_on_c, 0, 76, 100
2, 12179, Note_on_c, 0, 76, 0
2, 12180, Note_on_c, 0, 79, 100
2, 12239, Note_on_c, 0, 79, 0
2, 12400, Note_on_c, 0, 79, 100
2, 12459, Note_on_c, 0, 79, 0
2, 12520, Note_on_c, 0, 79, 100
2, 12579, Note_on_c, 0, 79, 0
2, 12640, Note_on_c, 0, 74, 100
2, 12699, Note_on_c, 0, 74, 0
2, 12760, Note_on_c, 0, 76, 100
2, 12819, Note_on_c, 0, 76, 0
2, 12820, Note_on_c, 0, 76, 100
2, 12849, Note_on_c, 0, 76, 0
2, 12940, Note_on_c, 0, 76, 100
2, 12969, Note_on_c, 0, 76, 0
2, 13000, Note_on_c, 0, 71, 100
2, 13059, Note_on_c, 0, 71, 0
2, 13120, Note_on_c, 0, 71, 100
2, 13179, Note_on_c, 0, 71, 0
2, 13240, Note_on_c, 0, 74, 100
2, 13299, Note_on_c, 0, 74, 0
2, 13360, Note_on_c, 0, 74, 100
2, 13419, Note_on_c, 0, 74, 0
2, 13480, Note_on_c, 0, 74, 100
2, 13539, Note_on_c, 0, 74, 0
2, 13600, Note_on_c, 0, 71, 100
2, 13659, Note_on_c, 0, 71, 0
2, 13720, Note_on_c, 0, 71, 100
2, 13779, Note_on_c, 0, 71, 0
2, 13780, Note_on_c, 0, 71, 100
2, 13800, Note_on_c, 0, 71, 100
2, 13809, Note_on_c, 0, 71, 0
2, 13859, Note_on_c, 0, 71, 0
2, 13920, Note_on_c, 0, 71, 100
2, 13979, Note_on_c, 0, 71, 0
2, 14040, Note_on_c, 0, 71, 100
2, 14099, Note_on_c, 0, 71, 0
2, 14120, Note_on_c, 0, 76, 100
2, 14179, Note_on_c, 0, 76, 0
2, 14200, Note_on_c, 0, 79, 100
2, 14269, Note_on_c, 0, 79, 0
2, 14320, Note_on_c, 0, 76, 100
2, 14349, Note_on_c, 0, 76, 0
2, 14380, Note_on_c, 0, 76, 100
2, 14400, Note_on_c, 0, 76, 100
2, 14409, Note_on_c, 0, 76, 0
2, 14459, Note_on_c, 0, 76, 0
2, 14520, Note_on_c, 0, 71, 100
2, 14579, Note_on_c, 0, 71, 0
2, 14840, Note_on_c, 0, 69, 100
2, 14899, Note_on_c, 0, 69, 0
2, 14960, Note_on_c, 0, 71, 100
2, 15019, Note_on_c, 0, 71, 0
2, 15080, Note_on_c, 0, 71, 100
2, 15139, Note_on_c, 0, 71, 0
2, 15200, Note_on_c, 0, 71, 100
2, 15259, Note_on_c, 0, 71, 0
2, 15320, Note_on_c, 0, 71, 100
2, 15379, Note_on_c, 0, 71, 0
2, 15400, Note_on_c, 0, 71, 100
2, 15459, Note_on_c, 0, 71, 0
2, 15480, Note_on_c, 0, 76, 100
2, 15520, Note_on_c, 0, 71, 100
2, 15539, Note_on_c, 0, 76, 0
2, 15540, Note_on_c, 0, 76, 100
2, 15569, Note_on_c, 0, 76, 0
2, 15579, Note_on_c, 0, 71, 0
2, 15660, Note_on_c, 0, 76, 100
2, 15689, Note_on_c, 0, 76, 0
2, 15720, Note_on_c, 0, 71, 100
2, 15779, Note_on_c, 0, 71, 0
2, 15840, Note_on_c, 0, 71, 100
2, 15899, Note_on_c, 0, 71, 0
2, 15960, Note_on_c, 0, 69, 100
2, 16019, Note_on_c, 0, 69, 0
2, 16080, Note_on_c, 0, 74, 100
2, 16139, Note_on_c, 0, 74, 0
2, 16200, Note_on_c, 0, 74, 100
2, 16259, Note_on_c, 0, 74, 0
2, 16320, Note_on_c, 0, 76, 100
2, 16379, Note_on_c, 0, 76, 0
2, 16440, Note_on_c, 0, 76, 100
2, 16499, Note_on_c, 0, 76, 0
2, 16500, Note_on_c, 0, 76, 100
2, 16529, Note_on_c, 0, 76, 0
2, 16620, Note_on_c, 0, 76, 100
2, 16649, Note_on_c, 0, 76, 0
2, 16680, Note_on_c, 0, 76, 100
2, 16739, Note_on_c, 0, 76, 0
2, 16800, Note_on_c, 0, 74, 100
2, 16859, Note_on_c, 0, 74, 0
2, 16920, Note_on_c, 0, 71, 100
2, 16979, Note_on_c, 0, 71, 0
2, 17040, Note_on_c, 0, 71, 100
2, 17099, Note_on_c, 0, 71, 0
2, 17160, Note_on_c, 0, 74, 100
2, 17219, Note_on_c, 0, 74, 0
2, 17280, Note_on_c, 0, 79, 100
2, 17339, Note_on_c, 0, 79, 0
2, 17400, Note_on_c, 0, 79, 100
2, 17459, Note_on_c, 0, 79, 0
2, 17520, Note_on_c, 0, 76, 100
2, 17579, Note_on_c, 0, 76, 0
2, 17640, Note_on_c, 0, 76, 100
2, 17699, Note_on_c, 0, 76, 0
2, 17760, Note_on_c, 0, 76, 100
2, 17819, Note_on_c, 0, 76, 0
2, 17880, Note_on_c, 0, 76, 100
2, 17939, Note_on_c, 0, 76, 0
2, 18000, Note_on_c, 0, 76, 100
2, 18059, Note_on_c, 0, 76, 0
2, 18220, Note_on_c, 0, 74, 100
2, 18249, Note_on_c, 0, 74, 0
2, 18280, Note_on_c, 0, 76, 100
2, 18339, Note_on_c, 0, 76, 0
2, 18360, Note_on_c, 0, 71, 100
2, 18419, Note_on_c, 0, 71, 0
2, 18480, Note_on_c, 0, 69, 100
2, 18539, Note_on_c, 0, 69, 0
2, 18720, Note_on_c, 0, 69, 100
2, 18779, Note_on_c, 0, 69, 0
2, 18800, Note_on_c, 0, 71, 100
2, 18859, Note_on_c, 0, 71, 0
2, 18920, Note_on_c, 0, 74, 100
2, 18979, Note_on_c, 0, 74, 0
2, 19040, Note_on_c, 0, 76, 100
2, 19099, Note_on_c, 0, 76, 0
2, 19100, Note_on_c, 0, 76, 100
2, 19129, Note_on_c, 0, 76, 0
2, 19220, Note_on_c, 0, 76, 100
2, 19249, Note_on_c, 0, 76, 0
2, 19340, Note_on_c, 0, 76, 100
2, 19399, Note_on_c, 0, 76, 0
2, 19400, Note_on_c, 0, 79, 100
2, 19459, Note_on_c, 0, 79, 0
2, 19520, Note_on_c, 0, 74, 100
2, 19579, Note_on_c, 0, 74, 0
2, 19640, Note_on_c, 0, 74, 100
2, 19699, Note_on_c, 0, 74, 0
2, 19760, Note_on_c, 0, 71, 100
2, 19819, Note_on_c, 0, 71, 0
2, 19880, Note_on_c, 0, 71, 100
2, 19939, Note_on_c, 0, 71, 0
2, 19940, Note_on_c, 0, 76, 100
2, 19969, Note_on_c, 0, 76, 0
2, 20060, Note_on_c, 0, 76, 100
2, 20089, Note_on_c, 0, 76, 0
2, 20180, Note_on_c, 0, 76, 100
2, 20239, Note_on_c, 0, 76, 0
2, 20340, Note_on_c, 0, 76, 100
2, 20399, Note_on_c, 0, 76, 0
2, 20400, Note_on_c, 0, 79, 100
2, 20459, Note_on_c, 0, 79, 0
2, 20520, Note_on_c, 0, 76, 100
2, 20579, Note_on_c, 0, 76, 0
2, 20640, Note_on_c, 0, 71, 100
2, 20699, Note_on_c, 0, 71, 0
2, 20700, Note_on_c, 0, 71, 100
2, 20729, Note_on_c, 0, 71, 0
2, 20820, Note_on_c, 0, 71, 100
2, 20849, Note_on_c, 0, 71, 0
2, 20880, Note_on_c, 0, 71, 100
2, 20939, Note_on_c, 0, 71, 0
2, 21000, Note_on_c, 0, 65, 100
2, 21059, Note_on_c, 0, 65, 0
2, 21120, Note_on_c, 0, 67, 100
2, 21179, Note_on_c, 0, 67, 0
2, 21200, Note_on_c, 0, 71, 100
2, 21259, Note_on_c, 0, 71, 0
2, 21380, Note_on_c, 0, 71, 100
2, 21409, Note_on_c, 0, 71, 0
2, 21420, Note_on_c, 0, 71, 100
2, 21449, Note_on_c, 0, 71, 0
2, 21540, Note_on_c, 0, 71, 100
2, 21569, Note_on_c, 0, 71, 0
2, 21660, Note_on_c, 0, 71, 100
2, 21719, Note_on_c, 0, 71, 0
2, 21740, Note_on_c, 0, 65, 100
2, 21799, Note_on_c, 0, 65, 0
2, 21880, Note_on_c, 0, 67, 100
2, 21939, Note_on_c, 0, 67, 0
2, 22000, Note_on_c, 0, 74, 100
2, 22040, Note_on_c, 0, 76, 100
2, 22059, Note_on_c, 0, 74, 0
2, 22069, Note_on_c, 0, 76, 0
2, 22100, Note_on_c, 0, 76, 100
2, 22120, Note_on_c, 0, 71, 100
2, 22129, Note_on_c, 0, 76, 0
2, 22160, Note_on_c, 0, 76, 100
2, 22179, Note_on_c, 0, 71, 0
2, 22219, Note_on_c, 0, 76, 0
2, 22240, Note_on_c, 0, 71, 100
2, 22269, Note_on_c, 0, 71, 0
2, 22280, Note_on_c, 0, 74, 100
2, 22339, Note_on_c, 0, 74, 0
2, 22360, Note_on_c, 0, 69, 100
2, 22400, Note_on_c, 0, 74, 100
2, 22419, Note_on_c, 0, 69, 0
2, 22420, Note_on_c, 0, 69, 100
2, 22459, Note_on_c, 0, 74, 0
2, 22479, Note_on_c, 0, 69, 0
2, 22520, Note_on_c, 0, 74, 100
2, 22579, Note_on_c, 0, 74, 0
2, 22600, Note_on_c, 0, 71, 100
2, 22640, Note_on_c, 0, 74, 100
2, 22659, Note_on_c, 0, 71, 0
2, 22699, Note_on_c, 0, 74, 0
2, 22720, Note_on_c, 0, 69, 100
2, 22760, Note_on_c, 0, 74, 100
2, 22779, Note_on_c, 0, 69, 0
2, 22819, Note_on_c, 0, 74, 0
2, 22820, Note_on_c, 0, 71, 100
2, 22840, Note_on_c, 0, 71, 100
2, 22849, Note_on_c, 0, 71, 0
2, 22899, Note_on_c, 0, 71, 0
2, 22940, Note_on_c, 0, 71, 100
2, 22960, Note_on_c, 0, 71, 100
2, 22969, Note_on_c, 0, 71, 0
2, 22989, Note_on_c, 0, 71, 0
2, 23000, Note_on_c, 0, 76, 100
2, 23020, Note_on_c, 0, 76, 100
2, 23049, Note_on_c, 0, 76, 0
2, 23059, Note_on_c, 0, 76, 0
2, 23080, Note_on_c, 0, 71, 100
2, 23120, Note_on_c, 0, 74, 100
2, 23139, Note_on_c, 0, 71, 0
2, 23179, Note_on_c, 0, 74, 0
2, 23200, Note_on_c, 0, 65, 100
2, 23240, Note_on_c, 0, 74, 100
2, 23259, Note_on_c, 0, 65, 0
2, 23299, Note_on_c, 0, 74, 0
2, 23320, Note_on_c, 0, 71, 100
2, 23360, Note_on_c, 0, 74, 100
2, 23379, Note_on_c, 0, 71, 0
2, 23419, Note_on_c, 0, 74, 0
2, 23420, Note_on_c, 0, 76, 100
2, 23440, Note_on_c, 0, 74, 100
2, 23479, Note_on_c, 0, 76, 0
2, 23480, Note_on_c, 0, 71, 100
2, 23499, Note_on_c, 0, 74, 0
2, 23539, Note_on_c, 0, 71, 0
2, 23560, Note_on_c, 0, 74, 100
2, 23600, Note_on_c, 0, 71, 100
2, 23619, Note_on_c, 0, 74, 0
2, 23659, Note_on_c, 0, 71, 0
2, 23680, Note_on_c, 0, 72, 100
2, 23720, Note_on_c, 0, 71, 100
2, 23739, Note_on_c, 0, 72, 0
2, 23779, Note_on_c, 0, 71, 0
2, 23800, Note_on_c, 0, 74, 100
2, 23840, Note_on_c, 0, 72, 100
2, 23859, Note_on_c, 0, 74, 0
2, 23899, Note_on_c, 0, 72, 0
2, 23920, Note_on_c, 0, 76, 100
2, 23960, Note_on_c, 0, 72, 100
2, 23979, Note_on_c, 0, 76, 0
2, 24019, Note_on_c, 0, 72, 0
2, 24080, Note_on_c, 0, 71, 100
2, 24139, Note_on_c, 0, 71, 0
2, 24200, Note_on_c, 0, 71, 100
2, 24259, Note_on_c, 0, 71, 0
2, 24320, Note_on_c, 0, 71, 100
2, 24379, Note_on_c, 0, 71, 0
2, 24440, Note_on_c, 0, 76, 100
2, 24460, Note_on_c, 0, 71, 100
2, 24489, Note_on_c, 0, 71, 0
2, 24499, Note_on_c, 0, 76, 0
2, 24580, Note_on_c, 0, 71, 100
2, 24609, Note_on_c, 0, 71, 0
2, 24640, Note_on_c, 0, 71, 100
2, 24699, Note_on_c, 0, 71, 0
2, 24760, Note_on_c, 0, 74, 100
2, 24819, Note_on_c, 0, 74, 0
2, 24880, Note_on_c, 0, 69, 100
2, 24939, Note_on_c, 0, 69, 0
2, 25000, Note_on_c, 0, 71, 100
2, 25059, Note_on_c, 0, 71, 0
2, 25060, Note_on_c, 0, 71, 100
2, 25089, Note_on_c, 0, 71, 0
2, 25180, Note_on_c, 0, 71, 100
2, 25209, Note_on_c, 0, 71, 0
2, 25240, Note_on_c, 0, 71, 100
2, 25299, Note_on_c, 0, 71, 0
2, 25360, Note_on_c, 0, 71, 100
2, 25419, Note_on_c, 0, 71, 0
2, 25480, Note_on_c, 0, 74, 100
2, 25539, Note_on_c, 0, 74, 0
2, 25600, Note_on_c, 0, 71, 100
2, 25659, Note_on_c, 0, 71, 0
2, 25720, Note_on_c, 0, 71, 100
2, 25779, Note_on_c, 0, 71, 0
2, 25780, Note_on_c, 0, 71, 100
2, 25809, Note_on_c, 0, 71, 0
2, 25900, Note_on_c, 0, 71, 100
2, 25929, Note_on_c, 0, 71, 0
2, 26000, Note_on_c, 0, 71, 100
2, 26059, Note_on_c, 0, 71, 0
2, 26120, Note_on_c, 0, 71, 100
2, 26179, Note_on_c, 0, 71, 0
2, 26240, Note_on_c, 0, 71, 100
2, 26299, Note_on_c, 0, 71, 0
2, 26360, Note_on_c, 0, 71, 100
2, 26419, Note_on_c, 0, 71, 0
2, 26480, Note_on_c, 0, 71, 100
2, 26539, Note_on_c, 0, 71, 0
2, 26600, Note_on_c, 0, 71, 100
2, 26659, Note_on_c, 0, 71, 0
2, 26720, Note_on_c, 0, 71, 100
2, 26779, Note_on_c, 0, 71, 0
2, 26840, Note_on_c, 0, 71, 100
2, 26869, Note_on_c, 0, 71, 0
2, 26900, Note_on_c, 0, 71, 100
2, 26959, Note_on_c, 0, 71, 0
2, 27020, Note_on_c, 0, 71, 100
2, 27049, Note_on_c, 0, 71, 0
2, 27080, Note_on_c, 0, 71, 100
2, 27139, Note_on_c, 0, 71, 0
2, 27140, Note_on_c, 0, 71, 100
2, 27199, Note_on_c, 0, 71, 0
2, 27260, Note_on_c, 0, 71, 100
2, 27319, Note_on_c, 0, 71, 0
2, 27320, Note_on_c, 0, 69, 100
2, 27379, Note_on_c, 0, 69, 0
2, 27440, Note_on_c, 0, 71, 100
2, 27499, Note_on_c, 0, 71, 0
2, 27560, Note_on_c, 0, 71, 100
2, 27619, Note_on_c, 0, 71, 0
2, 27780, Note_on_c, 0, 71, 100
2, 27809, Note_on_c, 0, 71, 0
2, 27840, Note_on_c, 0, 71, 100
2, 27899, Note_on_c, 0, 71, 0
2, 27960, Note_on_c, 0, 71, 100
2, 28019, Note_on_c, 0, 71, 0
2, 28080, Note_on_c, 0, 69, 100
2, 28139, Note_on_c, 0, 69, 0
2, 28200, Note_on_c, 0, 71, 100
2, 28259, Note_on_c, 0, 71, 0
2, 28320, Note_on_c, 0, 71, 100
2, 28379, Note_on_c, 0, 71, 0
2, 28440, Note_on_c, 0, 71, 100
2, 28499, Note_on_c, 0, 71, 0
2, 28500, Note_on_c, 0, 71, 100
2, 28529, Note_on_c, 0, 71, 0
2, 28620, Note_on_c, 0, 76, 100
2, 28649, Note_on_c, 0, 76, 0
2, 28680, Note_on_c, 0, 71, 100
2, 28739, Note_on_c, 0, 71, 0
2, 28800, Note_on_c, 0, 71, 100
2, 28859, Note_on_c, 0, 71, 0
2, 28920, Note_on_c, 0, 71, 100
2, 28979, Note_on_c, 0, 71, 0
2, 29040, Note_on_c, 0, 71, 100
2, 29099, Note_on_c, 0, 71, 0
2, 29160, Note_on_c, 0, 71, 100
2, 29219, Note_on_c, 0, 71, 0
2, 29280, Note_on_c, 0, 71, 100
2, 29309, Note_on_c, 0, 71, 0
2, 29400, Note_on_c, 0, 71, 100
2, 29459, Note_on_c, 0, 71, 0
2, 29520, Note_on_c, 0, 69, 100
2, 29579, Note_on_c, 0, 69, 0
2, 29640, Note_on_c, 0, 69, 100
2, 29699, Note_on_c, 0, 69, 0
2, 29760, Note_on_c, 0, 69, 100
2, 29819, Note_on_c, 0, 69, 0
2, 29880, Note_on_c, 0, 69, 100
2, 29939, Note_on_c, 0, 69, 0
2, 30000, Note_on_c, 0, 71, 100
2, 30059, Note_on_c, 0, 71, 0
2, 30060, Note_on_c, 0, 76, 100
2, 30089, Note_on_c, 0, 76, 0
2, 30100, Note_on_c, 0, 76, 100
2, 30129, Note_on_c, 0, 76, 0
2, 30220, Note_on_c, 0, 71, 100
2, 30249, Note_on_c, 0, 71, 0
2, 30340, Note_on_c, 0, 76, 100
2, 30399, Note_on_c, 0, 76, 0
2, 30400, Note_on_c, 0, 74, 100
2, 30459, Note_on_c, 0, 74, 0
2, 30520, Note_on_c, 0, 71, 100
2, 30579, Note_on_c, 0, 71, 0
2, 30620, Note_on_c, 0, 71, 100
2, 30679, Note_on_c, 0, 71, 0
2, 30700, Note_on_c, 0, 71, 100
2, 30729, Note_on_c, 0, 71, 0
2, 30760, Note_on_c, 0, 71, 100
2, 30819, Note_on_c, 0, 71, 0
2, 30880, Note_on_c, 0, 69, 100
2, 30939, Note_on_c, 0, 69, 0
2, 30940, Note_on_c, 0, 71, 100
2, 30960, Note_on_c, 0, 71, 100
2, 30999, Note_on_c, 0, 71, 0
2, 31019, Note_on_c, 0, 71, 0
2, 31020, Note_on_c, 0, 71, 100
2, 31049, Note_on_c, 0, 71, 0
2, 31140, Note_on_c, 0, 71, 100
2, 31169, Note_on_c, 0, 71, 0
2, 31200, Note_on_c, 0, 71, 100
2, 31259, Note_on_c, 0, 71, 0
2, 31320, Note_on_c, 0, 71, 100
2, 31379, Note_on_c, 0, 71, 0
2, 31440, Note_on_c, 0, 69, 100
2, 31499, Note_on_c, 0, 69, 0
2, 31560, Note_on_c, 0, 71, 100
2, 31619, Note_on_c, 0, 71, 0
2, 31680, Note_on_c, 0, 71, 100
2, 31739, Note_on_c, 0, 71, 0
2, 31800, Note_on_c, 0, 71, 100
2, 31859, Note_on_c, 0, 71, 0
2, 31920, Note_on_c, 0, 71, 100
2, 31979, Note_on_c, 0, 71, 0
2, 32040, Note_on_c, 0, 71, 100
2, 32099, Note_on_c, 0, 71, 0
2, 32100, Note_on_c, 0, 71, 100
2, 32129, Note_on_c, 0, 71, 0
2, 32220, Note_on_c, 0, 71, 100
2, 32249, Note_on_c, 0, 71, 0
2, 32280, Note_on_c, 0, 71, 100
2, 32339, Note_on_c, 0, 71, 0
2, 32400, Note_on_c, 0, 71, 100
2, 32459, Note_on_c, 0, 71, 0
2, 32520, Note_on_c, 0, 71, 100
2, 32579, Note_on_c, 0, 71, 0
2, 32640, Note_on_c, 0, 69, 100
2, 32699, Note_on_c, 0, 69, 0
2, 32760, Note_on_c, 0, 71, 100
2, 32819, Note_on_c, 0, 71, 0
2, 32820, Note_on_c, 0, 71, 100
2, 32849, Note_on_c, 0, 71, 0
2, 32940, Note_on_c, 0, 71, 100
2, 32969, Note_on_c, 0, 71, 0
2, 33000, Note_on_c, 0, 71, 100
2, 33059, Note_on_c, 0, 71, 0
2, 33120, Note_on_c, 0, 69, 100
2, 33179, Note_on_c, 0, 69, 0
2, 33240, Note_on_c, 0, 69, 100
2, 33299, Note_on_c, 0, 69, 0
2, 33360, Note_on_c, 0, 71, 100
2, 33419, Note_on_c, 0, 71, 0
2, 33480, Note_on_c, 0, 71, 100
2, 33500, Note_on_c, 0, 71, 100
2, 33509, Note_on_c, 0, 71, 0
2, 33529, Note_on_c, 0, 71, 0
2, 33660, Note_on_c, 0, 71, 100
2, 33719, Note_on_c, 0, 71, 0
2, 33720, Note_on_c, 0, 71, 100
2, 33779, Note_on_c, 0, 71, 0
2, 33840, Note_on_c, 0, 74, 100
2, 33899, Note_on_c, 0, 74, 0
2, 33960, Note_on_c, 0, 69, 100
2, 34019, Note_on_c, 0, 69, 0
2, 34080, Note_on_c, 0, 69, 100
2, 34139, Note_on_c, 0, 69, 0
2, 34200, Note_on_c, 0, 71, 100
2, 34259, Note_on_c, 0, 71, 0
2, 34260, Note_on_c, 0, 76, 100
2, 34289, Note_on_c, 0, 76, 0
2, 34380, Note_on_c, 0, 71, 100
2, 34400, Note_on_c, 0, 71, 100
2, 34409, Note_on_c, 0, 71, 0
2, 34459, Note_on_c, 0, 71, 0
2, 34520, Note_on_c, 0, 71, 100
2, 34579, Note_on_c, 0, 71, 0
2, 34640, Note_on_c, 0, 69, 100
2, 34699, Note_on_c, 0, 69, 0
2, 34760, Note_on_c, 0, 69, 100
2, 34819, Note_on_c, 0, 69, 0
2, 34880, Note_on_c, 0, 71, 100
2, 34939, Note_on_c, 0, 71, 0
2, 34940, Note_on_c, 0, 71, 100
2, 34969, Note_on_c, 0, 71, 0
2, 35000, Note_on_c, 0, 71, 100
2, 35059, Note_on_c, 0, 71, 0
2, 35120, Note_on_c, 0, 71, 100
2, 35179, Note_on_c, 0, 71, 0
2, 35240, Note_on_c, 0, 71, 100
2, 35299, Note_on_c, 0, 71, 0
2, 35360, Note_on_c, 0, 71, 100
2, 35419, Note_on_c, 0, 71, 0
2, 35480, Note_on_c, 0, 71, 100
2, 35539, Note_on_c, 0, 71, 0
2, 35540, Note_on_c, 0, 71, 100
2, 35569, Note_on_c, 0, 71, 0
2, 35660, Note_on_c, 0, 76, 100
2, 35719, Note_on_c, 0, 76, 0
2, 35720, Note_on_c, 0, 74, 100
2, 35779, Note_on_c, 0, 74, 0
2, 35840, Note_on_c, 0, 74, 100
2, 35899, Note_on_c, 0, 74, 0
2, 36000, Note_on_c, 0, 74, 100
2, 36059, Note_on_c, 0, 74, 0
2, 36120, Note_on_c, 0, 71, 100
2, 36179, Note_on_c, 0, 71, 0
2, 36240, Note_on_c, 0, 71, 100
2, 36299, Note_on_c, 0, 71, 0
2, 36360, Note_on_c, 0, 71, 100
2, 36419, Note_on_c, 0, 71, 0
2, 36420, Note_on_c, 0, 76, 100
2, 36449, Note_on_c, 0, 76, 0
2, 36540, Note_on_c, 0, 76, 100
2, 36599, Note_on_c, 0, 76, 0
2, 36600, Note_on_c, 0, 74, 100
2, 36659, Note_on_c, 0, 74, 0
2, 36720, Note_on_c, 0, 74, 100
2, 36779, Note_on_c, 0, 74, 0
2, 36840, Note_on_c, 0, 69, 100
2, 36899, Note_on_c, 0, 69, 0
2, 36960, Note_on_c, 0, 74, 100
2, 37019, Note_on_c, 0, 74, 0
2, 37020, Note_on_c, 0, 71, 100
2, 37049, Note_on_c, 0, 71, 0
2, 37080, Note_on_c, 0, 71, 100
2, 37139, Note_on_c, 0, 71, 0
2, 37200, Note_on_c, 0, 71, 100
2, 37259, Note_on_c, 0, 71, 0
2, 37320, Note_on_c, 0, 71, 100
2, 37379, Note_on_c, 0, 71, 0
2, 37440, Note_on_c, 0, 74, 100
2, 37499, Note_on_c, 0, 74, 0
2, 37560, Note_on_c, 0, 71, 100
2, 37619, Note_on_c, 0, 71, 0
2, 37680, Note_on_c, 0, 71, 100
2, 37709, Note_on_c, 0, 71, 0
2, 37740, Note_on_c, 0, 76, 100
2, 37769, Note_on_c, 0, 76, 0
2, 37800, Note_on_c, 0, 71, 100
2, 37859, Note_on_c, 0, 71, 0
2, 37920, Note_on_c, 0, 74, 100
2, 37979, Note_on_c, 0, 74, 0
2, 38040, Note_on_c, 0, 74, 100
2, 38099, Note_on_c, 0, 74, 0
2, 38160, Note_on_c, 0, 74, 100
2, 38219, Note_on_c, 0, 74, 0
2, 38280, Note_on_c, 0, 74, 100
2, 38339, Note_on_c, 0, 74, 0
2, 38400, Note_on_c, 0, 71, 100
2, 38459, Note_on_c, 0, 71, 0
2, 38520, Note_on_c, 0, 71, 100
2, 38579, Note_on_c, 0, 71, 0
2, 38640, Note_on_c, 0, 71, 100
2, 38699, Note_on_c, 0, 71, 0
2, 38700, Note_on_c, 0, 76, 100
2, 38729, Note_on_c, 0, 76, 0
2, 38820, Note_on_c, 0, 71, 100
2, 38849, Note_on_c, 0, 71, 0
2, 38880, Note_on_c, 0, 71, 100
2, 38939, Note_on_c, 0, 71, 0
2, 39100, Note_on_c, 0, 69, 100
2, 39159, Note_on_c, 0, 69, 0
2, 39220, Note_on_c, 0, 74, 100
2, 39279, Note_on_c, 0, 74, 0
2, 39340, Note_on_c, 0, 71, 100
2, 39399, Note_on_c, 0, 71, 0
2, 39400, Note_on_c, 0, 71, 100
2, 39459, Note_on_c, 0, 71, 0
2, 39520, Note_on_c, 0, 71, 100
2, 39579, Note_on_c, 0, 71, 0
2, 39640, Note_on_c, 0, 71, 100
2, 39699, Note_on_c, 0, 71, 0
2, 39700, Note_on_c, 0, 71, 100
2, 39729, Note_on_c, 0, 71, 0
2, 39820, Note_on_c, 0, 71, 100
2, 39849, Note_on_c, 0, 71, 0
2, 39880, Note_on_c, 0, 69, 100
2, 39939, Note_on_c, 0, 69, 0
2, 39940, Note_on_c, 0, 71, 100
2, 39999, Note_on_c, 0, 71, 0
2, 40000, Note_on_c, 0, 71, 100
2, 40059, Note_on_c, 0, 71, 0
2, 40120, Note_on_c, 0, 76, 100
2, 40179, Note_on_c, 0, 76, 0
2, 40240, Note_on_c, 0, 76, 100
2, 40299, Note_on_c, 0, 76, 0
2, 40360, Note_on_c, 0, 76, 100
2, 40419, Note_on_c, 0, 76, 0
2, 40420, Note_on_c, 0, 71, 100
2, 40449, Note_on_c, 0, 71, 0
2, 40540, Note_on_c, 0, 71, 100
2, 40569, Note_on_c, 0, 71, 0
2, 40600, Note_on_c, 0, 71, 100
2, 40659, Note_on_c, 0, 71, 0
2, 40720, Note_on_c, 0, 71, 100
2, 40779, Note_on_c, 0, 71, 0
2, 40840, Note_on_c, 0, 71, 100
2, 40899, Note_on_c, 0, 71, 0
2, 40960, Note_on_c, 0, 71, 100
2, 41019, Note_on_c, 0, 71, 0
2, 41080, Note_on_c, 0, 71, 100
2, 41139, Note_on_c, 0, 71, 0
2, 41200, Note_on_c, 0, 71, 100
2, 41259, Note_on_c, 0, 71, 0
2, 41320, Note_on_c, 0, 74, 100
2, 41379, Note_on_c, 0, 74, 0
2, 41440, Note_on_c, 0, 74, 100
2, 41499, Note_on_c, 0, 74, 0
2, 41560, Note_on_c, 0, 71, 100
2, 41619, Note_on_c, 0, 71, 0
2, 41680, Note_on_c, 0, 71, 100
2, 41739, Note_on_c, 0, 71, 0
2, 41800, Note_on_c, 0, 71, 100
2, 41859, Note_on_c, 0, 71, 0
2, 41920, Note_on_c, 0, 71, 100
2, 41979, Note_on_c, 0, 71, 0
2, 42040, Note_on_c, 0, 71, 100
2, 42099, Note_on_c, 0, 71, 0
2, 42160, Note_on_c, 0, 71, 100
2, 42219, Note_on_c, 0, 71, 0
2, 42220, Note_on_c, 0, 71, 100
2, 42249, Note_on_c, 0, 71, 0
2, 42340, Note_on_c, 0, 71, 100
2, 42369, Note_on_c, 0, 71, 0
2, 42400, Note_on_c, 0, 71, 100
2, 42459, Note_on_c, 0, 71, 0
2, 42520, Note_on_c, 0, 71, 100
2, 42579, Note_on_c, 0, 71, 0
2, 42840, Note_on_c, 0, 71, 100
2, 42899, Note_on_c, 0, 71, 0
2, 42960, Note_on_c, 0, 71, 100
2, 43019, Note_on_c, 0, 71, 0
2, 43020, Note_on_c, 0, 71, 100
2, 43049, Note_on_c, 0, 71, 0
2, 43280, Note_on_c, 0, 71, 100
2, 43339, Note_on_c, 0, 71, 0
2, 43400, Note_on_c, 0, 67, 100
2, 43459, Note_on_c, 0, 67, 0
2, 43520, Note_on_c, 0, 65, 100
2, 43579, Note_on_c, 0, 65, 0
2, 43640, Note_on_c, 0, 67, 100
2, 43699, Note_on_c, 0, 67, 0
2, 43760, Note_on_c, 0, 71, 100
2, 43819, Note_on_c, 0, 71, 0
2, 43820, Note_on_c, 0, 71, 100
2, 43849, Note_on_c, 0, 71, 0
2, 43940, Note_on_c, 0, 69, 100
2, 43969, Note_on_c, 0, 69, 0
2, 44000, Note_on_c, 0, 71, 100
2, 44059, Note_on_c, 0, 71, 0
2, 44059, End_track
0, 0, End_of_file