0, 0, Header, 1, 2, 140
1, 0, Start_track
1, 0, Time_signature, 4, 2, 24, 8
1, 0, End_track
2, 0, Start_track
2, 0, MIDI_port, 0
2, 0, Program_c, 0, 56
2, 0, Note_on_c, 0, 71, 100
2, 0, Note_on_c, 0, 76, 100
2, 0, Note_on_c, 0, 47, 100
2, 10, Note_on_c, 0, 71, 100
2, 20, Note_on_c, 0, 71, 100
2, 29, Note_on_c, 0, 47, 0
2, 39, Note_on_c, 0, 71, 0
2, 49, Note_on_c, 0, 71, 0
2, 60, Note_on_c, 0, 66, 100
2, 70, Note_on_c, 0, 68, 100
2, 80, Note_on_c, 0, 71, 100
2, 89, Note_on_c, 0, 66, 0
2, 90, Note_on_c, 0, 71, 100
2, 99, Note_on_c, 0, 68, 0
2, 109, Note_on_c, 0, 71, 0
2, 119, Note_on_c, 0, 71, 0
2, 120, Note_on_c, 0, 71, 100
2, 130, Note_on_c, 0, 71, 100
2, 130, Note_on_c, 0, 71, 100
2, 130, Note_on_c, 0, 68, 100
2, 149, Note_on_c, 0, 71, 0
2, 159, Note_on_c, 0, 71, 0
2, 159, Note_on_c, 0, 71, 0
2, 159, Note_on_c, 0, 68, 0
2, 180, Note_on_c, 0, 71, 100
2, 180, Note_on_c, 0, 66, 100
2, 180, Note_on_c, 0, 71, 100
2, 180, Note_on_c, 0, 66, 100
2, 180, Note_on_c, 0, 71, 100
2, 180, Note_on_c, 0, 71, 100
2, 209, Note_on_c, 0, 71, 0
2, 209, Note_on_c, 0, 66, 0
2, 209, Note_on_c, 0, 71, 0
2, 209, Note_on_c, 0, 66, 0
2, 209, Note_on_c, 0, 71, 0
2, 209, Note_on_c, 0, 71, 0
2, 210, Note_on_c, 0, 66, 100
2, 210, Note_on_c, 0, 66, 100
2, 210, Note_on_c, 0, 71, 100
2, 239, Note_on_c, 0, 66, 0
2, 239, Note_on_c, 0, 66, 0
2, 239, Note_on_c, 0, 71, 0
2, 240, Note_on_c, 0, 66, 100
2, 240, Note_on_c, 0, 71, 100
2, 240, Note_on_c, 0, 66, 100
2, 240, Note_on_c, 0, 66, 100
2, 269, Note_on_c, 0, 66, 0
2, 269, Note_on_c, 0, 71, 0
2, 269, Note_on_c, 0, 66, 0
2, 290, Note_on_c, 0, 76, 0
2, 340, Note_on_c, 0, 62, 100
2, 459, Note_on_c, 0, 66, 0
2, 470, Note_on_c, 0, 71, 0
2, 500, Note_on_c, 0, 62, 100
2, 579, Note_on_c, 0, 62, 0
2, 608, Note_on_c, 0, 66, 100
2, 680, Note_on_c, 0, 66, 100
2, 739, Note_on_c, 0, 62, 0
2, 847, Note_on_c, 0, 66, 0
2, 900, Note_on_c, 0, 63, 100
2, 911, Note_on_c, 0, 66, 0
2, 1002, Note_on_c, 0, 61, 100
2, 1139, Note_on_c, 0, 63, 0
2, 1184, Note_on_c, 0, 61, 100
2, 1241, Note_on_c, 0, 61, 0
2, 1528, Note_on_c, 0, 63, 100
2, 1622, Note_on_c, 0, 70, 100
2, 1903, Note_on_c, 0, 61, 0
2, 2247, Note_on_c, 0, 63, 0
2, 2341, Note_on_c, 0, 70, 0
2, 2640, Note_on_c, 0, 63, 100
2, 2740, Note_on_c, 0, 70, 100
2, 2819, Note_on_c, 0, 63, 0
2, 2859, Note_on_c, 0, 70, 0
2, 2872, Note_on_c, 0, 68, 100
2, 3231, Note_on_c, 0, 68, 0
2, 3328, Note_on_c, 0, 70, 100
2, 3399, Note_on_c, 0, 70, 0
2, 3440, Note_on_c, 0, 67, 100
2, 3480, Note_on_c, 0, 70, 100
2, 3499, Note_on_c, 0, 67, 0
2, 3536, Note_on_c, 0, 72, 100
2, 3539, Note_on_c, 0, 70, 0
2, 3595, Note_on_c, 0, 72, 0
2, 3600, Note_on_c, 0, 72, 100
2, 3839, Note_on_c, 0, 72, 0
2, 3848, Note_on_c, 0, 70, 100
2, 3967, Note_on_c, 0, 70, 0
2, 4032, Note_on_c, 0, 70, 100
2, 4151, Note_on_c, 0, 70, 0
2, 4208, Note_on_c, 0, 70, 100
2, 4447, Note_on_c, 0, 70, 0
2, 4496, Note_on_c, 0, 70, 100
2, 4615, Note_on_c, 0, 70, 0
2, 4800, Note_on_c, 0, 70, 100
2, 4859, Note_on_c, 0, 70, 0
2, 4904, Note_on_c, 0, 70, 100
2, 4960, Note_on_c, 0, 72, 100
2, 4963, Note_on_c, 0, 70, 0
2, 5019, Note_on_c, 0, 72, 0
2, 5024, Note_on_c, 0, 72, 100
2, 5264, Note_on_c, 0, 70, 100
2, 5293, Note_on_c, 0, 70, 0
2, 5318, Note_on_c, 0, 73, 100
2, 5340, Note_on_c, 0, 70, 100
2, 5347, Note_on_c, 0, 73, 0
2, 5370, Note_on_c, 0, 70, 100
2, 5399, Note_on_c, 0, 70, 0
2, 5399, Note_on_c, 0, 70, 0
2, 5400, Note_on_c, 0, 71, 100
2, 5483, Note_on_c, 0, 72, 0
2, 5579, Note_on_c, 0, 71, 0
2, 5580, Note_on_c, 0, 70, 100
2, 5609, Note_on_c, 0, 70, 0
2, 5610, Note_on_c, 0, 70, 100
2, 5639, Note_on_c, 0, 70, 0
2, 5640, Note_on_c, 0, 70, 100
2, 5699, Note_on_c, 0, 70, 0
2, 5700, Note_on_c, 0, 70, 100
2, 5729, Note_on_c, 0, 70, 0
2, 5730, Note_on_c, 0, 69, 100
2, 5759, Note_on_c, 0, 69, 0
2, 5760, Note_on_c, 0, 70, 100
2, 5879, Note_on_c, 0, 70, 0
2, 5880, Note_on_c, 0, 62, 100
2, 5969, Note_on_c, 0, 62, 0
2, 6000, Note_on_c, 0, 66, 100
2, 6089, Note_on_c, 0, 66, 0
2, 6120, Note_on_c, 0, 66, 100
2, 6179, Note_on_c, 0, 66, 0
2, 6240, Note_on_c, 0, 65, 100
2, 6479, Note_on_c, 0, 65, 0
2, 6680, Note_on_c, 0, 63, 100
2, 6730, Note_on_c, 0, 70, 100
2, 6739, Note_on_c, 0, 63, 0
2, 6760, Note_on_c, 0, 73, 100
2, 6789, Note_on_c, 0, 70, 0
2, 6819, Note_on_c, 0, 73, 0
2, 6820, Note_on_c, 0, 75, 100
2, 6849, Note_on_c, 0, 75, 0
2, 6850, Note_on_c, 0, 75, 100
2, 6879, Note_on_c, 0, 75, 0
2, 6880, Note_on_c, 0, 75, 100
2, 6939, Note_on_c, 0, 75, 0
2, 6940, Note_on_c, 0, 75, 100
2, 6999, Note_on_c, 0, 75, 0
2, 7010, Note_on_c, 0, 75, 100
2, 7069, Note_on_c, 0, 75, 0
2, 7070, Note_on_c, 0, 75, 100
2, 7160, Note_on_c, 0, 77, 100
2, 7189, Note_on_c, 0, 75, 0
2, 7189, Note_on_c, 0, 77, 0
2, 7210, Note_on_c, 0, 73, 100
2, 7234, Note_on_c, 0, 73, 0
2, 7240, Note_on_c, 0, 70, 100
2, 7270, Note_on_c, 0, 70, 100
2, 7299, Note_on_c, 0, 70, 0
2, 7299, Note_on_c, 0, 70, 0
2, 7300, Note_on_c, 0, 75, 100
2, 7329, Note_on_c, 0, 75, 0
2, 7360, Note_on_c, 0, 70, 100
2, 7389, Note_on_c, 0, 70, 0
2, 7390, Note_on_c, 0, 73, 100
2, 7420, Note_on_c, 0, 70, 100
2, 7449, Note_on_c, 0, 73, 0
2, 7449, Note_on_c, 0, 70, 0
2, 7450, Note_on_c, 0, 73, 100
2, 7479, Note_on_c, 0, 73, 0
2, 7480, Note_on_c, 0, 75, 100
2, 7539, Note_on_c, 0, 75, 0
2, 7540, Note_on_c, 0, 73, 100
2, 7599, Note_on_c, 0, 73, 0
2, 7600, Note_on_c, 0, 71, 100
2, 7719, Note_on_c, 0, 71, 0
2, 7720, Note_on_c, 0, 71, 100
2, 7749, Note_on_c, 0, 71, 0
2, 7830, Note_on_c, 0, 73, 100
2, 7859, Note_on_c, 0, 73, 0
2, 7880, Note_on_c, 0, 75, 100
2, 7929, Note_on_c, 0, 75, 0
2, 7930, Note_on_c, 0, 73, 100
2, 8109, Note_on_c, 0, 73, 0
2, 8260, Note_on_c, 0, 71, 100
2, 8439, Note_on_c, 0, 71, 0
2, 8440, Note_on_c, 0, 69, 100
2, 8559, Note_on_c, 0, 69, 0
2, 8640, Note_on_c, 0, 72, 100
2, 8699, Note_on_c, 0, 72, 0
2, 8700, Note_on_c, 0, 76, 100
2, 8759, Note_on_c, 0, 76, 0
2, 8760, Note_on_c, 0, 76, 100
2, 8780, Note_on_c, 0, 76, 100
2, 8819, Note_on_c, 0, 76, 0
2, 8839, Note_on_c, 0, 76, 0
2, 8840, Note_on_c, 0, 78, 100
2, 8899, Note_on_c, 0, 78, 0
2, 8900, Note_on_c, 0, 76, 100
2, 9019, Note_on_c, 0, 76, 0
2, 9020, Note_on_c, 0, 76, 100
2, 9199, Note_on_c, 0, 76, 0
2, 9240, Note_on_c, 0, 83, 100
2, 9419, Note_on_c, 0, 83, 0
2, 9420, Note_on_c, 0, 78, 100
2, 9449, Note_on_c, 0, 78, 0
2, 9450, Note_on_c, 0, 73, 100
2, 9479, Note_on_c, 0, 73, 0
2, 9480, Note_on_c, 0, 71, 100
2, 9539, Note_on_c, 0, 71, 0
2, 9540, Note_on_c, 0, 74, 100
2, 9599, Note_on_c, 0, 74, 0
2, 9600, Note_on_c, 0, 71, 100
2, 9659, Note_on_c, 0, 71, 0
2, 9700, Note_on_c, 0, 71, 100
2, 9729, Note_on_c, 0, 71, 0
2, 9790, Note_on_c, 0, 71, 100
2, 9800, Note_on_c, 0, 76, 100
2, 9819, Note_on_c, 0, 71, 0
2, 9859, Note_on_c, 0, 76, 0
2, 9890, Note_on_c, 0, 76, 100
2, 9949, Note_on_c, 0, 76, 0
2, 10080, Note_on_c, 0, 76, 100
2, 10100, Note_on_c, 0, 76, 100
2, 10139, Note_on_c, 0, 76, 0
2, 10159, Note_on_c, 0, 76, 0
2, 10220, Note_on_c, 0, 76, 100
2, 10249, Note_on_c, 0, 76, 0
2, 10280, Note_on_c, 0, 76, 100
2, 10339, Note_on_c, 0, 76, 0
2, 10340, Note_on_c, 0, 76, 100
2, 10399, Note_on_c, 0, 76, 0
2, 10400, Note_on_c, 0, 71, 100
2, 10459, Note_on_c, 0, 71, 0
2, 10460, Note_on_c, 0, 74, 100
2, 10489, Note_on_c, 0, 74, 0
2, 10580, Note_on_c, 0, 76, 100
2, 10639, Note_on_c, 0, 76, 0
2, 10640, Note_on_c, 0, 74, 100
2, 10699, Note_on_c, 0, 74, 0
2, 10760, Note_on_c, 0, 74, 100
2, 10819, Note_on_c, 0, 74, 0
2, 10880, Note_on_c, 0, 71, 100
2, 10939, Note_on_c, 0, 71, 0
2, 11040, Note_on_c, 0, 76, 100
2, 11099, Note_on_c, 0, 76, 0
2, 11160, Note_on_c, 0, 74, 100
2, 11189, Note_on_c, 0, 74, 0
2, 11220, Note_on_c, 0, 76, 100
2, 11249, Note_on_c, 0, 76, 0
2, 11280, Note_on_c, 0, 76, 100
2, 11339, Note_on_c, 0, 76, 0
2, 11340, Note_on_c, 0, 74, 100
2, 11399, Note_on_c, 0, 74, 0
2, 11460, Note_on_c, 0, 74, 100
2, 11519, Note_on_c, 0, 74, 0
2, 11520, Note_on_c, 0, 74, 100
2, 11579, Note_on_c, 0, 74, 0
2, 11640, Note_on_c, 0, 74, 100
2, 11699, Note_on_c, 0, 74, 0
2, 11760, Note_on_c, 0, 76, 100
2, 11819, Note_on_c, 0, 76, 0
2, 11820, Note_on_c, 0, 76, 100
2, 11849, Note_on_c, 0, 76, 0
2, 11880, Note_on_c, 0, 76, 100
2, 11939, Note_on_c, 0, 76, 0
2, 11940, Note_on_c, 0, 74, 100
2, 11999, Note_on_c, 0, 74, 0
2, 12000, Note_on_c, 0, 76, 100
2, 12059, Note_on_c, 0, 76, 0
2, 12120, Note_on_c, 0, 76, 100
2, 12179, Note_on_c, 0, 76, 0
2, 12180, Note_on_c, 0, 74, 100
2, 12209, Note_on_c, 0, 74, 0
2, 12400, Note_on_c, 0, 76, 100
2, 12459, Note_on_c, 0, 76, 0
2, 12460, Note_on_c, 0, 76, 100
2, 12519, Note_on_c, 0, 76, 0
2, 12580, Note_on_c, 0, 76, 100
2, 12639, Note_on_c, 0, 76, 0
2, 12640, Note_on_c, 0, 76, 100
2, 12699, Note_on_c, 0, 76, 0
2, 12700, Note_on_c, 0, 76, 100
2, 12759, Note_on_c, 0, 76, 0
2, 12760, Note_on_c, 0, 76, 100
2, 12819, Note_on_c, 0, 76, 0
2, 12820, Note_on_c, 0, 76, 100
2, 12879, Note_on_c, 0, 76, 0
2, 12940, Note_on_c, 0, 76, 100
2, 12969, Note_on_c, 0, 76, 0
2, 13000, Note_on_c, 0, 76, 100
2, 13059, Note_on_c, 0, 76, 0
2, 13060, Note_on_c, 0, 74, 100
2, 13119, Note_on_c, 0, 74, 0
2, 13120, Note_on_c, 0, 71, 100
2, 13179, Note_on_c, 0, 71, 0
2, 13240, Note_on_c, 0, 74, 100
2, 13299, Note_on_c, 0, 74, 0
2, 13300, Note_on_c, 0, 79, 100
2, 13359, Note_on_c, 0, 79, 0
2, 13420, Note_on_c, 0, 76, 100
2, 13449, Note_on_c, 0, 76, 0
2, 13480, Note_on_c, 0, 71, 100
2, 13539, Note_on_c, 0, 71, 0
2, 13540, Note_on_c, 0, 71, 100
2, 13599, Note_on_c, 0, 71, 0
2, 13660, Note_on_c, 0, 71, 100
2, 13719, Note_on_c, 0, 71, 0
2, 13720, Note_on_c, 0, 76, 100
2, 13779, Note_on_c, 0, 76, 0
2, 13840, Note_on_c, 0, 79, 100
2, 13899, Note_on_c, 0, 79, 0
2, 13960, Note_on_c, 0, 76, 100
2, 14019, Note_on_c, 0, 76, 0
2, 14020, Note_on_c, 0, 76, 100
2, 14049, Note_on_c, 0, 76, 0
2, 14080, Note_on_c, 0, 76, 100
2, 14139, Note_on_c, 0, 76, 0
2, 14200, Note_on_c, 0, 76, 100
2, 14259, Note_on_c, 0, 76, 0
2, 14280, Note_on_c, 0, 74, 100
2, 14339, Note_on_c, 0, 74, 0
2, 14400, Note_on_c, 0, 79, 100
2, 14459, Note_on_c, 0, 79, 0
2, 14460, Note_on_c, 0, 76, 100
2, 14489, Note_on_c, 0, 76, 0
2, 14580, Note_on_c, 0, 76, 100
2, 14609, Note_on_c, 0, 76, 0
2, 14640, Note_on_c, 0, 76, 100
2, 14699, Note_on_c, 0, 76, 0
2, 14760, Note_on_c, 0, 79, 100
2, 14819, Note_on_c, 0, 79, 0
2, 14880, Note_on_c, 0, 79, 100
2, 14939, Note_on_c, 0, 79, 0
2, 14940, Note_on_c, 0, 79, 100
2, 14969, Note_on_c, 0, 79, 0
2, 15000, Note_on_c, 0, 76, 100
2, 15059, Note_on_c, 0, 76, 0
2, 15060, Note_on_c, 0, 76, 100
2, 15119, Note_on_c, 0, 76, 0
2, 15120, Note_on_c, 0, 74, 100
2, 15179, Note_on_c, 0, 74, 0
2, 15240, Note_on_c, 0, 74, 100
2, 15299, Note_on_c, 0, 74, 0
2, 15360, Note_on_c, 0, 76, 100
2, 15419, Note_on_c, 0, 76, 0
2, 15420, Note_on_c, 0, 76, 100
2, 15449, Note_on_c, 0, 76, 0
2, 15540, Note_on_c, 0, 76, 100
2, 15569, Note_on_c, 0, 76, 0
2, 15600, Note_on_c, 0, 76, 100
2, 15659, Note_on_c, 0, 76, 0
2, 15720, Note_on_c, 0, 74, 100
2, 15779, Note_on_c, 0, 74, 0
2, 15840, Note_on_c, 0, 74, 100
2, 15899, Note_on_c, 0, 74, 0
2, 15960, Note_on_c, 0, 74, 100
2, 16019, Note_on_c, 0, 74, 0
2, 16080, Note_on_c, 0, 74, 100
2, 16139, Note_on_c, 0, 74, 0
2, 16140, Note_on_c, 0, 76, 100
2, 16169, Note_on_c, 0, 76, 0
2, 16200, Note_on_c, 0, 76, 100
2, 16229, Note_on_c, 0, 76, 0
2, 16280, Note_on_c, 0, 76, 100
2, 16339, Note_on_c, 0, 76, 0
2, 16340, Note_on_c, 0, 79, 100
2, 16399, Note_on_c, 0, 79, 0
2, 16460, Note_on_c, 0, 79, 100
2, 16519, Note_on_c, 0, 79, 0
2, 16520, Note_on_c, 0, 79, 100
2, 16579, Note_on_c, 0, 79, 0
2, 16640, Note_on_c, 0, 76, 100
2, 16699, Note_on_c, 0, 76, 0
2, 16760, Note_on_c, 0, 76, 100
2, 16789, Note_on_c, 0, 76, 0
2, 16820, Note_on_c, 0, 76, 100
2, 16849, Note_on_c, 0, 76, 0
2, 16940, Note_on_c, 0, 76, 100
2, 16999, Note_on_c, 0, 76, 0
2, 17000, Note_on_c, 0, 76, 100
2, 17059, Note_on_c, 0, 76, 0
2, 17120, Note_on_c, 0, 74, 100
2, 17179, Note_on_c, 0, 74, 0
2, 17240, Note_on_c, 0, 74, 100
2, 17299, Note_on_c, 0, 74, 0
2, 17360, Note_on_c, 0, 74, 100
2, 17419, Note_on_c, 0, 74, 0
2, 17480, Note_on_c, 0, 74, 100
2, 17539, Note_on_c, 0, 74, 0
2, 17540, Note_on_c, 0, 74, 100
2, 17560, Note_on_c, 0, 71, 100
2, 17569, Note_on_c, 0, 74, 0
2, 17589, Note_on_c, 0, 71, 0
2, 17680, Note_on_c, 0, 71, 100
2, 17739, Note_on_c, 0, 71, 0
2, 17800, Note_on_c, 0, 69, 100
2, 17859, Note_on_c, 0, 69, 0
2, 17920, Note_on_c, 0, 69, 100
2, 17979, Note_on_c, 0, 69, 0
2, 18040, Note_on_c, 0, 69, 100
2, 18099, Note_on_c, 0, 69, 0
2, 18100, Note_on_c, 0, 71, 100
2, 18129, Note_on_c, 0, 71, 0
2, 18220, Note_on_c, 0, 76, 100
2, 18249, Note_on_c, 0, 76, 0
2, 18280, Note_on_c, 0, 76, 100
2, 18339, Note_on_c, 0, 76, 0
2, 18400, Note_on_c, 0, 74, 100
2, 18459, Note_on_c, 0, 74, 0
2, 18520, Note_on_c, 0, 74, 100
2, 18579, Note_on_c, 0, 74, 0
2, 18640, Note_on_c, 0, 71, 100
2, 18699, Note_on_c, 0, 71, 0
2, 18760, Note_on_c, 0, 69, 100
2, 18819, Note_on_c, 0, 69, 0
2, 18820, Note_on_c, 0, 71, 100
2, 18849, Note_on_c, 0, 71, 0
2, 18940, Note_on_c, 0, 71, 100
2, 18969, Note_on_c, 0, 71, 0
2, 19000, Note_on_c, 0, 71, 100
2, 19059, Note_on_c, 0, 71, 0
2, 19120, Note_on_c, 0, 74, 100
2, 19179, Note_on_c, 0, 74, 0
2, 19240, Note_on_c, 0, 69, 100
2, 19299, Note_on_c, 0, 69, 0
2, 19360, Note_on_c, 0, 69, 100
2, 19419, Note_on_c, 0, 69, 0
2, 19480, Note_on_c, 0, 69, 100
2, 19500, Note_on_c, 0, 71, 100
2, 19509, Note_on_c, 0, 69, 0
2, 19529, Note_on_c, 0, 71, 0
2, 19660, Note_on_c, 0, 71, 100
2, 19719, Note_on_c, 0, 71, 0
2, 19780, Note_on_c, 0, 71, 100
2, 19839, Note_on_c, 0, 71, 0
2, 19840, Note_on_c, 0, 71, 100
2, 19899, Note_on_c, 0, 71, 0
2, 19960, Note_on_c, 0, 74, 100
2, 19980, Note_on_c, 0, 71, 100
2, 20009, Note_on_c, 0, 71, 0
2, 20019, Note_on_c, 0, 74, 0
2, 20040, Note_on_c, 0, 71, 100
2, 20069, Note_on_c, 0, 71, 0
2, 20160, Note_on_c, 0, 71, 100
2, 20219, Note_on_c, 0, 71, 0
2, 20280, Note_on_c, 0, 74, 100
2, 20339, Note_on_c, 0, 74, 0
2, 20400, Note_on_c, 0, 74, 100
2, 20459, Note_on_c, 0, 74, 0
2, 20520, Note_on_c, 0, 71, 100
2, 20579, Note_on_c, 0, 71, 0
2, 20640, Note_on_c, 0, 69, 100
2, 20699, Note_on_c, 0, 69, 0
2, 20760, Note_on_c, 0, 74, 100
2, 20819, Note_on_c, 0, 74, 0
2, 20880, Note_on_c, 0, 74, 100
2, 20939, Note_on_c, 0, 74, 0
2, 21000, Note_on_c, 0, 71, 100
2, 21020, Note_on_c, 0, 76, 100
2, 21049, Note_on_c, 0, 76, 0
2, 21059, Note_on_c, 0, 71, 0
2, 21180, Note_on_c, 0, 76, 100
2, 21209, Note_on_c, 0, 76, 0
2, 21240, Note_on_c, 0, 76, 100
2, 21299, Note_on_c, 0, 76, 0
2, 21400, Note_on_c, 0, 71, 100
2, 21459, Note_on_c, 0, 71, 0
2, 21520, Note_on_c, 0, 71, 100
2, 21579, Note_on_c, 0, 71, 0
2, 21640, Note_on_c, 0, 76, 100
2, 21699, Note_on_c, 0, 76, 0
2, 21760, Note_on_c, 0, 74, 100
2, 21819, Note_on_c, 0, 74, 0
2, 21880, Note_on_c, 0, 76, 100
2, 21939, Note_on_c, 0, 76, 0
2, 21940, Note_on_c, 0, 76, 100
2, 21969, Note_on_c, 0, 76, 0
2, 22060, Note_on_c, 0, 76, 100
2, 22080, Note_on_c, 0, 76, 100
2, 22089, Note_on_c, 0, 76, 0
2, 22139, Note_on_c, 0, 76, 0
2, 22200, Note_on_c, 0, 74, 100
2, 22259, Note_on_c, 0, 74, 0
2, 22320, Note_on_c, 0, 74, 100
2, 22379, Note_on_c, 0, 74, 0
2, 22440, Note_on_c, 0, 74, 100
2, 22499, Note_on_c, 0, 74, 0
2, 22560, Note_on_c, 0, 74, 100
2, 22619, Note_on_c, 0, 74, 0
2, 22660, Note_on_c, 0, 76, 100
2, 22680, Note_on_c, 0, 71, 100
2, 22689, Note_on_c, 0, 76, 0
2, 22739, Note_on_c, 0, 71, 0
2, 22800, Note_on_c, 0, 71, 100
2, 22829, Note_on_c, 0, 71, 0
2, 22940, Note_on_c, 0, 76, 100
2, 22999, Note_on_c, 0, 76, 0
2, 23000, Note_on_c, 0, 74, 100
2, 23059, Note_on_c, 0, 74, 0
2, 23120, Note_on_c, 0, 74, 100
2, 23179, Note_on_c, 0, 74, 0
2, 23240, Note_on_c, 0, 74, 100
2, 23299, Note_on_c, 0, 74, 0
2, 23300, Note_on_c, 0, 76, 100
2, 23329, Note_on_c, 0, 76, 0
2, 23360, Note_on_c, 0, 76, 100
2, 23389, Note_on_c, 0, 76, 0
2, 23420, Note_on_c, 0, 76, 100
2, 23479, Note_on_c, 0, 76, 0
2, 23480, Note_on_c, 0, 74, 100
2, 23539, Note_on_c, 0, 74, 0
2, 23600, Note_on_c, 0, 74, 100
2, 23659, Note_on_c, 0, 74, 0
2, 23720, Note_on_c, 0, 79, 100
2, 23779, Note_on_c, 0, 79, 0
2, 23780, Note_on_c, 0, 76, 100
2, 23809, Note_on_c, 0, 76, 0
2, 23840, Note_on_c, 0, 76, 100
2, 23899, Note_on_c, 0, 76, 0
2, 23900, Note_on_c, 0, 71, 100
2, 23959, Note_on_c, 0, 71, 0
2, 23960, Note_on_c, 0, 71, 100
2, 24019, Note_on_c, 0, 71, 0
2, 24020, Note_on_c, 0, 71, 100
2, 24049, Note_on_c, 0, 71, 0
2, 24080, Note_on_c, 0, 71, 100
2, 24100, Note_on_c, 0, 71, 100
2, 24139, Note_on_c, 0, 71, 0
2, 24159, Note_on_c, 0, 71, 0
2, 24220, Note_on_c, 0, 71, 100
2, 24279, Note_on_c, 0, 71, 0
2, 24280, Note_on_c, 0, 71, 100
2, 24309, Note_on_c, 0, 71, 0
2, 24500, Note_on_c, 0, 71, 100
2, 24559, Note_on_c, 0, 71, 0
2, 24560, Note_on_c, 0, 71, 100
2, 24619, Note_on_c, 0, 71, 0
2, 24680, Note_on_c, 0, 71, 100
2, 24700, Note_on_c, 0, 71, 100
2, 24729, Note_on_c, 0, 71, 0
2, 24739, Note_on_c, 0, 71, 0
2, 24760, Note_on_c, 0, 71, 100
2, 24819, Note_on_c, 0, 71, 0
2, 24880, Note_on_c, 0, 71, 100
2, 24939, Note_on_c, 0, 71, 0
2, 24960, Note_on_c, 0, 69, 100
2, 25019, Note_on_c, 0, 69, 0
2, 25020, Note_on_c, 0, 71, 100
2, 25079, Note_on_c, 0, 71, 0
2, 25140, Note_on_c, 0, 71, 100
2, 25169, Note_on_c, 0, 71, 0
2, 25200, Note_on_c, 0, 71, 100
2, 25229, Note_on_c, 0, 71, 0
2, 25260, Note_on_c, 0, 76, 100
2, 25319, Note_on_c, 0, 76, 0
2, 25320, Note_on_c, 0, 71, 100
2, 25379, Note_on_c, 0, 71, 0
2, 25440, Note_on_c, 0, 74, 100
2, 25499, Note_on_c, 0, 74, 0
2, 25560, Note_on_c, 0, 74, 100
2, 25619, Note_on_c, 0, 74, 0
2, 25680, Note_on_c, 0, 74, 100
2, 25739, Note_on_c, 0, 74, 0
2, 25800, Note_on_c, 0, 71, 100
2, 25859, Note_on_c, 0, 71, 0
2, 25920, Note_on_c, 0, 74, 100
2, 25949, Note_on_c, 0, 74, 0
2, 26040, Note_on_c, 0, 76, 100
2, 26099, Note_on_c, 0, 76, 0
2, 26100, Note_on_c, 0, 76, 100
2, 26129, Note_on_c, 0, 76, 0
2, 26160, Note_on_c, 0, 76, 100
2, 26189, Note_on_c, 0, 76, 0
2, 26220, Note_on_c, 0, 76, 100
2, 26279, Note_on_c, 0, 76, 0
2, 26280, Note_on_c, 0, 74, 100
2, 26339, Note_on_c, 0, 74, 0
2, 26400, Note_on_c, 0, 74, 100
2, 26459, Note_on_c, 0, 74, 0
2, 26520, Note_on_c, 0, 74, 100
2, 26579, Note_on_c, 0, 74, 0
2, 26640, Note_on_c, 0, 74, 100
2, 26699, Note_on_c, 0, 74, 0
2, 26760, Note_on_c, 0, 71, 100
2, 26800, Note_on_c, 0, 71, 100
2, 26819, Note_on_c, 0, 71, 0
2, 26829, Note_on_c, 0, 71, 0
2, 26940, Note_on_c, 0, 71, 100
2, 26969, Note_on_c, 0, 71, 0
2, 27000, Note_on_c, 0, 71, 100
2, 27059, Note_on_c, 0, 71, 0
2, 27220, Note_on_c, 0, 69, 100
2, 27279, Note_on_c, 0, 69, 0
2, 27380, Note_on_c, 0, 71, 100
2, 27400, Note_on_c, 0, 71, 100
2, 27439, Note_on_c, 0, 71, 0
2, 27459, Note_on_c, 0, 71, 0
2, 27520, Note_on_c, 0, 71, 100
2, 27579, Note_on_c, 0, 71, 0
2, 27640, Note_on_c, 0, 71, 100
2, 27669, Note_on_c, 0, 71, 0
2, 27760, Note_on_c, 0, 71, 100
2, 27819, Note_on_c, 0, 71, 0
2, 27880, Note_on_c, 0, 71, 100
2, 27939, Note_on_c, 0, 71, 0
2, 28000, Note_on_c, 0, 71, 100
2, 28059, Note_on_c, 0, 71, 0
2, 28120, Note_on_c, 0, 71, 100
2, 28179, Note_on_c, 0, 71, 0
2, 28180, Note_on_c, 0, 71, 100
2, 28209, Note_on_c, 0, 71, 0
2, 28240, Note_on_c, 0, 71, 100
2, 28269, Note_on_c, 0, 71, 0
2, 28300, Note_on_c, 0, 71, 100
2, 28359, Note_on_c, 0, 71, 0
2, 28420, Note_on_c, 0, 71, 100
2, 28479, Note_on_c, 0, 71, 0
2, 28480, Note_on_c, 0, 71, 100
2, 28539, Note_on_c, 0, 71, 0
2, 28600, Note_on_c, 0, 74, 100
2, 28659, Note_on_c, 0, 74, 0
2, 28720, Note_on_c, 0, 71, 100
2, 28740, Note_on_c, 0, 71, 100
2, 28769, Note_on_c, 0, 71, 0
2, 28779, Note_on_c, 0, 71, 0
2, 28800, Note_on_c, 0, 71, 100
2, 28859, Note_on_c, 0, 71, 0
2, 28920, Note_on_c, 0, 71, 100
2, 28979, Note_on_c, 0, 71, 0
2, 28980, Note_on_c, 0, 71, 100
2, 29000, Note_on_c, 0, 71, 100
2, 29009, Note_on_c, 0, 71, 0
2, 29059, Note_on_c, 0, 71, 0
2, 29120, Note_on_c, 0, 71, 100
2, 29179, Note_on_c, 0, 71, 0
2, 29180, Note_on_c, 0, 71, 100
2, 29209, Note_on_c, 0, 71, 0
2, 29300, Note_on_c, 0, 71, 100
2, 29329, Note_on_c, 0, 71, 0
2, 29360, Note_on_c, 0, 71, 100
2, 29419, Note_on_c, 0, 71, 0
2, 29480, Note_on_c, 0, 69, 100
2, 29539, Note_on_c, 0, 69, 0
2, 29600, Note_on_c, 0, 69, 100
2, 29659, Note_on_c, 0, 69, 0
2, 29720, Note_on_c, 0, 71, 100
2, 29779, Note_on_c, 0, 71, 0
2, 29840, Note_on_c, 0, 69, 100
2, 29899, Note_on_c, 0, 69, 0
2, 29960, Note_on_c, 0, 71, 100
2, 30019, Note_on_c, 0, 71, 0
2, 30020, Note_on_c, 0, 71, 100
2, 30049, Note_on_c, 0, 71, 0
2, 30140, Note_on_c, 0, 71, 100
2, 30169, Note_on_c, 0, 71, 0
2, 30200, Note_on_c, 0, 71, 100
2, 30259, Note_on_c, 0, 71, 0
2, 30320, Note_on_c, 0, 74, 100
2, 30379, Note_on_c, 0, 74, 0
2, 30540, Note_on_c, 0, 71, 100
2, 30560, Note_on_c, 0, 71, 100
2, 30599, Note_on_c, 0, 71, 0
2, 30619, Note_on_c, 0, 71, 0
2, 30620, Note_on_c, 0, 71, 100
2, 30649, Note_on_c, 0, 71, 0
2, 30780, Note_on_c, 0, 71, 100
2, 30800, Note_on_c, 0, 74, 100
2, 30809, Note_on_c, 0, 71, 0
2, 30859, Note_on_c, 0, 74, 0
2, 30920, Note_on_c, 0, 74, 100
2, 30979, Note_on_c, 0, 74, 0
2, 31040, Note_on_c, 0, 74, 100
2, 31099, Note_on_c, 0, 74, 0
2, 31160, Note_on_c, 0, 74, 100
2, 31219, Note_on_c, 0, 74, 0
2, 31220, Note_on_c, 0, 76, 100
2, 31249, Note_on_c, 0, 76, 0
2, 31320, Note_on_c, 0, 74, 100
2, 31379, Note_on_c, 0, 74, 0
2, 31380, Note_on_c, 0, 76, 100
2, 31409, Note_on_c, 0, 76, 0
2, 31600, Note_on_c, 0, 76, 100
2, 31640, Note_on_c, 0, 74, 100
2, 31659, Note_on_c, 0, 76, 0
2, 31699, Note_on_c, 0, 74, 0
2, 31720, Note_on_c, 0, 71, 100
2, 31779, Note_on_c, 0, 71, 0
2, 31840, Note_on_c, 0, 71, 100
2, 31899, Note_on_c, 0, 71, 0
2, 31960, Note_on_c, 0, 71, 100
2, 32000, Note_on_c, 0, 71, 100
2, 32019, Note_on_c, 0, 71, 0
2, 32059, Note_on_c, 0, 71, 0
2, 32120, Note_on_c, 0, 71, 100
2, 32179, Note_on_c, 0, 71, 0
2, 32240, Note_on_c, 0, 71, 100
2, 32299, Note_on_c, 0, 71, 0
2, 32300, Note_on_c, 0, 71, 100
2, 32329, Note_on_c, 0, 71, 0
2, 33220, Note_on_c, 0, 71, 100
2, 33249, Note_on_c, 0, 71, 0
2, 33280, Note_on_c, 0, 71, 100
2, 33300, Note_on_c, 0, 71, 100
2, 33339, Note_on_c, 0, 71, 0
2, 33359, Note_on_c, 0, 71, 0
2, 33420, Note_on_c, 0, 71, 100
2, 33479, Note_on_c, 0, 71, 0
2, 33480, Note_on_c, 0, 71, 100
2, 33539, Note_on_c, 0, 71, 0
2, 33540, Note_on_c, 0, 71, 100
2, 33609, Note_on_c, 0, 71, 0
2, 33660, Note_on_c, 0, 71, 100
2, 33689, Note_on_c, 0, 71, 0
2, 33720, Note_on_c, 0, 71, 100
2, 33749, Note_on_c, 0, 71, 0
2, 33840, Note_on_c, 0, 71, 100
2, 33899, Note_on_c, 0, 71, 0
2, 33960, Note_on_c, 0, 71, 100
2, 34019, Note_on_c, 0, 71, 0
2, 34080, Note_on_c, 0, 74, 100
2, 34100, Note_on_c, 0, 71, 100
2, 34129, Note_on_c, 0, 71, 0
2, 34139, Note_on_c, 0, 74, 0
2, 34220, Note_on_c, 0, 71, 100
2, 34249, Note_on_c, 0, 71, 0
2, 34280, Note_on_c, 0, 71, 100
2, 34339, Note_on_c, 0, 71, 0
2, 34380, Note_on_c, 0, 71, 100
2, 34400, Note_on_c, 0, 71, 100
2, 34439, Note_on_c, 0, 71, 0
2, 34459, Note_on_c, 0, 71, 0
2, 34460, Note_on_c, 0, 71, 100
2, 34489, Note_on_c, 0, 71, 0
2, 34580, Note_on_c, 0, 71, 100
2, 34609, Note_on_c, 0, 71, 0
2, 34640, Note_on_c, 0, 71, 100
2, 34699, Note_on_c, 0, 71, 0
2, 34760, Note_on_c, 0, 69, 100
2, 34800, Note_on_c, 0, 71, 100
2, 34819, Note_on_c, 0, 69, 0
2, 34859, Note_on_c, 0, 71, 0
2, 34880, Note_on_c, 0, 65, 100
2, 34920, Note_on_c, 0, 71, 100
2, 34939, Note_on_c, 0, 65, 0
2, 34979, Note_on_c, 0, 71, 0
2, 34980, Note_on_c, 0, 71, 100
2, 35009, Note_on_c, 0, 71, 0
2, 37040, Note_on_c, 0, 71, 100
2, 37219, Note_on_c, 0, 71, 0
2, 37260, Note_on_c, 0, 71, 100
2, 37319, Note_on_c, 0, 71, 0
2, 37320, Note_on_c, 0, 69, 100
2, 37379, Note_on_c, 0, 69, 0
2, 37440, Note_on_c, 0, 69, 100
2, 37499, Note_on_c, 0, 69, 0
2, 37560, Note_on_c, 0, 71, 100
2, 37619, Note_on_c, 0, 71, 0
2, 37680, Note_on_c, 0, 71, 100
2, 37709, Note_on_c, 0, 71, 0
2, 37800, Note_on_c, 0, 71, 100
2, 37829, Note_on_c, 0, 71, 0
2, 37860, Note_on_c, 0, 71, 100
2, 37919, Note_on_c, 0, 71, 0
2, 37980, Note_on_c, 0, 71, 100
2, 38000, Note_on_c, 0, 71, 100
2, 38039, Note_on_c, 0, 71, 0
2, 38059, Note_on_c, 0, 71, 0
2, 38120, Note_on_c, 0, 71, 100
2, 38179, Note_on_c, 0, 71, 0
2, 38240, Note_on_c, 0, 71, 100
2, 38299, Note_on_c, 0, 71, 0
2, 38300, Note_on_c, 0, 71, 100
2, 38329, Note_on_c, 0, 71, 0
2, 38420, Note_on_c, 0, 71, 100
2, 38449, Note_on_c, 0, 71, 0
2, 38480, Note_on_c, 0, 71, 100
2, 38539, Note_on_c, 0, 71, 0
2, 38700, Note_on_c, 0, 71, 100
2, 38759, Note_on_c, 0, 71, 0
2, 38820, Note_on_c, 0, 71, 100
2, 38879, Note_on_c, 0, 71, 0
2, 38940, Note_on_c, 0, 71, 100
2, 38999, Note_on_c, 0, 71, 0
2, 39000, Note_on_c, 0, 71, 100
2, 39059, Note_on_c, 0, 71, 0
2, 39120, Note_on_c, 0, 71, 100
2, 39179, Note_on_c, 0, 71, 0
2, 39240, Note_on_c, 0, 71, 100
2, 39299, Note_on_c, 0, 71, 0
2, 39300, Note_on_c, 0, 74, 100
2, 39329, Note_on_c, 0, 74, 0
2, 39420, Note_on_c, 0, 76, 100
2, 39449, Note_on_c, 0, 76, 0
2, 39480, Note_on_c, 0, 71, 100
2, 39539, Note_on_c, 0, 71, 0
2, 39600, Note_on_c, 0, 74, 100
2, 39659, Note_on_c, 0, 74, 0
2, 39720, Note_on_c, 0, 74, 100
2, 39779, Note_on_c, 0, 74, 0
2, 39840, Note_on_c, 0, 71, 100
2, 39899, Note_on_c, 0, 71, 0
2, 39960, Note_on_c, 0, 71, 100
2, 40019, Note_on_c, 0, 71, 0
2, 40020, Note_on_c, 0, 71, 100
2, 40049, Note_on_c, 0, 71, 0
2, 40140, Note_on_c, 0, 71, 100
2, 40169, Note_on_c, 0, 71, 0
2, 40280, Note_on_c, 0, 71, 100
2, 40300, Note_on_c, 0, 71, 100
2, 40329, Note_on_c, 0, 71, 0
2, 40339, Note_on_c, 0, 71, 0
2, 40460, Note_on_c, 0, 71, 100
2, 40519, Note_on_c, 0, 71, 0
2, 40540, Note_on_c, 0, 71, 100
2, 40599, Note_on_c, 0, 71, 0
2, 40660, Note_on_c, 0, 71, 100
2, 40719, Note_on_c, 0, 71, 0
2, 40720, Note_on_c, 0, 71, 100
2, 40779, Note_on_c, 0, 71, 0
2, 40840, Note_on_c, 0, 74, 100
2, 40899, Note_on_c, 0, 74, 0
2, 40960, Note_on_c, 0, 74, 100
2, 40980, Note_on_c, 0, 76, 100
2, 41000, Note_on_c, 0, 74, 100
2, 41009, Note_on_c, 0, 76, 0
2, 41019, Note_on_c, 0, 74, 0
2, 41029, Note_on_c, 0, 74, 0
2, 41120, Note_on_c, 0, 71, 100
2, 41179, Note_on_c, 0, 71, 0
2, 41180, Note_on_c, 0, 69, 100
2, 41239, Note_on_c, 0, 69, 0
2, 41400, Note_on_c, 0, 69, 100
2, 41459, Note_on_c, 0, 69, 0
2, 41460, Note_on_c, 0, 74, 100
2, 41519, Note_on_c, 0, 74, 0
2, 41580, Note_on_c, 0, 71, 100
2, 41609, Note_on_c, 0, 71, 0
2, 41640, Note_on_c, 0, 71, 100
2, 41699, Note_on_c, 0, 71, 0
2, 41760, Note_on_c, 0, 71, 100
2, 41819, Note_on_c, 0, 71, 0
2, 41880, Note_on_c, 0, 76, 100
2, 41939, Note_on_c, 0, 76, 0
2, 41940, Note_on_c, 0, 76, 100
2, 41969, Note_on_c, 0, 76, 0
2, 42060, Note_on_c, 0, 76, 100
2, 42089, Note_on_c, 0, 76, 0
2, 42120, Note_on_c, 0, 76, 100
2, 42179, Note_on_c, 0, 76, 0
2, 42180, Note_on_c, 0, 74, 100
2, 42200, Note_on_c, 0, 74, 100
2, 42239, Note_on_c, 0, 74, 0
2, 42259, Note_on_c, 0, 74, 0
2, 42320, Note_on_c, 0, 74, 100
2, 42379, Note_on_c, 0, 74, 0
2, 42440, Note_on_c, 0, 71, 100
2, 42499, Note_on_c, 0, 71, 0
2, 42560, Note_on_c, 0, 71, 100
2, 42589, Note_on_c, 0, 71, 0
2, 42620, Note_on_c, 0, 71, 100
2, 42649, Note_on_c, 0, 71, 0
2, 42780, Note_on_c, 0, 71, 100
2, 42839, Note_on_c, 0, 71, 0
2, 42840, Note_on_c, 0, 69, 100
2, 42899, Note_on_c, 0, 69, 0
2, 43000, Note_on_c, 0, 71, 100
2, 43059, Note_on_c, 0, 71, 0
2, 43120, Note_on_c, 0, 71, 100
2, 43179, Note_on_c, 0, 71, 0
2, 43240, Note_on_c, 0, 71, 100
2, 43299, Note_on_c, 0, 71, 0
2, 43300, Note_on_c, 0, 71, 100
2, 43329, Note_on_c, 0, 71, 0
2, 43360, Note_on_c, 0, 71, 100
2, 43389, Note_on_c, 0, 71, 0
2, 43420, Note_on_c, 0, 71, 100
2, 43479, Note_on_c, 0, 71, 0
2, 43480, Note_on_c, 0, 71, 100
2, 43539, Note_on_c, 0, 71, 0
2, 43600, Note_on_c, 0, 67, 100
2, 43659, Note_on_c, 0, 67, 0
2, 43720, Note_on_c, 0, 71, 100
2, 43779, Note_on_c, 0, 71, 0
2, 43840, Note_on_c, 0, 71, 100
2, 43899, Note_on_c, 0, 71, 0
2, 43960, Note_on_c, 0, 71, 100
2, 44019, Note_on_c, 0, 71, 0
2, 44020, Note_on_c, 0, 71, 100
2, 44049, Note_on_c, 0, 71, 0
2, 44140, Note_on_c, 0, 71, 100
2, 44169, Note_on_c, 0, 71, 0
2, 44200, Note_on_c, 0, 71, 100
2, 44259, Note_on_c, 0, 71, 0
2, 44320, Note_on_c, 0, 69, 100
2, 44379, Note_on_c, 0, 69, 0
2, 44405, Note_on_c, 0, 74, 100
2, 44464, Note_on_c, 0, 74, 0
2, 44520, Note_on_c, 0, 74, 100
2, 44579, Note_on_c, 0, 74, 0
2, 44640, Note_on_c, 0, 74, 100
2, 44699, Note_on_c, 0, 74, 0
2, 44700, Note_on_c, 0, 76, 100
2, 44729, Note_on_c, 0, 76, 0
2, 44760, Note_on_c, 0, 76, 100
2, 44789, Note_on_c, 0, 76, 0
2, 44820, Note_on_c, 0, 76, 100
2, 44879, Note_on_c, 0, 76, 0
2, 44900, Note_on_c, 0, 71, 100
2, 44959, Note_on_c, 0, 71, 0
2, 45040, Note_on_c, 0, 74, 100
2, 45099, Note_on_c, 0, 74, 0
2, 45160, Note_on_c, 0, 74, 100
2, 45219, Note_on_c, 0, 74, 0
2, 45280, Note_on_c, 0, 74, 100
2, 45339, Note_on_c, 0, 74, 0
2, 45400, Note_on_c, 0, 76, 100
2, 45459, Note_on_c, 0, 76, 0
2, 45460, Note_on_c, 0, 76, 100
2, 45489, Note_on_c, 0, 76, 0
2, 45580, Note_on_c, 0, 76, 100
2, 45609, Note_on_c, 0, 76, 0
2, 45640, Note_on_c, 0, 76, 100
2, 45699, Note_on_c, 0, 76, 0
2, 45760, Note_on_c, 0, 79, 100
2, 45819, Note_on_c, 0, 79, 0
2, 45880, Note_on_c, 0, 79, 100
2, 45939, Note_on_c, 0, 79, 0
2, 46000, Note_on_c, 0, 79, 100
2, 46059, Note_on_c, 0, 79, 0
2, 46059, End_track
0, 0, End_of_file